<?xml version="1.0" encoding="UTF-8" standalone="no"?><!DOCTYPE svg PUBLIC "-//W3C//DTD SVG 1.1//EN" "http://www.w3.org/Graphics/SVG/1.1/DTD/svg11.dtd"><svg width="100%" height="100%" viewBox="0 0 542 742" version="1.1" xmlns="http://www.w3.org/2000/svg" xmlns:xlink="http://www.w3.org/1999/xlink" xml:space="preserve" style="fill-rule:evenodd;clip-rule:evenodd;stroke-linejoin:round;stroke-miterlimit:1.41421;"><g><path id="Feature-.23.7" d="M541.096,11.589c0,-5.519 -4.481,-10 -10,-10l-520,0c-5.519,0 -10,4.481 -10,10l0,720c0,5.519 4.481,10 10,10l520,0c5.519,0 10,-4.481 10,-10l0,-720Z" style="fill:#f2f2f2;"/><clipPath id="_clip1"><path d="M541.096,11.589c0,-5.519 -4.481,-10 -10,-10l-520,0c-5.519,0 -10,4.481 -10,10l0,720c0,5.519 4.481,10 10,10l520,0c5.519,0 10,-4.481 10,-10l0,-720Z"/></clipPath><g clip-path="url(#_clip1)"><g id="Filler-Text" transform="matrix(2,0,0,2,60.8662,490.081)"><text x="11.142px" y="11.25px" style="font-family:'Roboto-Light', 'Roboto';font-weight:300;font-size:15px;fill:#54657e;">W<tspan x="24.362px " y="11.25px ">e</tspan> get y<tspan x="67.311px " y="11.25px ">o</tspan>u star<tspan x="113.461px " y="11.25px ">t</tspan>ed right with</text><text x="2.964px" y="36.25px" style="font-family:'Roboto-Light', 'Roboto';font-weight:300;font-size:15px;fill:#54657e;">containers f<tspan x="80.615px " y="36.25px ">e</tspan>aturing notebooks</text><text x="36.524px" y="61.25px" style="font-family:'Roboto-Light', 'Roboto';font-weight:300;font-size:15px;fill:#54657e;">fr<tspan x="46.389px " y="61.25px ">o</tspan>m Pr<tspan x="85.867px " y="61.25px ">o</tspan>ject Jupyter<tspan x="170.198px " y="61.25px ">.</tspan></text></g><text id="Security" x="66.981px" y="440.94px" style="font-family:'RobotoCondensed-Regular', 'Roboto Condensed';font-size:50px;fill:#3d4d65;">J<tspan x="92.909px 122.743px 152.211px 180.604px 208.387px 234.974px 262.391px 274.72px 301.307px 334.462px 365.028px 394.056px 419.569px 446.156px " y="440.94px 440.94px 440.94px 440.94px 440.94px 440.94px 440.94px 440.94px 440.94px 440.94px 440.94px 440.94px 440.94px 440.94px ">UPYTER ENABLED</tspan></text><rect id="Header" x="1.096" y="1.589" width="540" height="340" style="fill:#ffdab8;"/><clipPath id="_clip2"><rect x="1.096" y="1.589" width="540" height="340"/></clipPath><g clip-path="url(#_clip2)"><text id="_1-0-1-1-1-0-1-0-0-1-0-1-1-0-1-0-1-0-0-0-0-1-0-1-1-1-0-0-1-0-1-1" x="-17.203px" y="-12.411px" style="font-family:'Roboto-Regular', 'Roboto';font-size:24px;fill:#fff;fill-opacity:0.301961;">1 0 1 1 1 0 1 0 0 1 0 1 1 0 1 0 1 0 0 0 0 1 0 1 1 1 0 0 1 0</text></g></g><g><path id="Fill.-9" d="M270.1,240.322c-43.222,0 -80.86,-15.539 -100.455,-38.497c14.829,41.157 54.204,70.582 100.455,70.582c46.25,0 85.627,-29.425 100.455,-70.582c-19.594,22.958 -57.232,38.497 -100.455,38.497" style="fill:#e46e2e;"/><path id="Fill.-10" d="M270.1,90.902c43.223,0 80.861,15.54 100.455,38.497c-14.828,-41.157 -54.205,-70.582 -100.455,-70.582c-46.251,0 -85.626,29.425 -100.455,70.582c19.595,-22.957 57.233,-38.497 100.455,-38.497" style="fill:#e46e2e;"/><path id="Fill.-11" d="M189.114,295.723c-9.267,0.397 -17.102,-6.794 -17.499,-16.061c-0.397,-9.267 6.794,-17.101 16.062,-17.499c9.267,-0.397 17.101,6.794 17.498,16.061c0.398,9.267 -6.793,17.103 -16.061,17.499Z" style="fill:#767474;"/><path id="Fill.-12" d="M176.226,77.024c-5.792,0.248 -10.689,-4.246 -10.937,-10.039c-0.248,-5.792 4.246,-10.689 10.038,-10.937c5.793,-0.248 10.69,4.246 10.938,10.039c0.248,5.792 -4.246,10.689 -10.039,10.937Z" style="fill:#767474;"/><path id="Fill.-8" d="M342.889,64.587c-8.994,0.385 -16.598,-6.594 -16.983,-15.588c-0.386,-8.994 6.594,-16.599 15.588,-16.984c8.994,-0.385 16.598,6.594 16.983,15.588c0.386,8.994 -6.594,16.599 -15.588,16.984Z" style="fill:#767474;"/><g id="Group.-Copy"><path id="Fill.-1" d="M147.966,179.782c0,9.673 -0.756,12.842 -2.773,15.176c-1.764,1.918 -4.705,2.835 -8.066,3.086l0.756,5.754c3.949,0 9.327,-1.335 12.603,-4.587c3.613,-3.669 4.873,-8.755 4.873,-16.594l0,-36.608l-7.393,0l0,33.773" style="fill:#313940;"/><path id="Fill.-2" d="M203.168,175.363c0,4.168 0.084,7.838 0.336,11.007l-6.554,0l-0.42,-6.588l-0.168,0c-1.933,3.252 -6.218,7.504 -13.443,7.504c-6.386,0 -14.032,-3.502 -14.032,-17.677l0,-23.6l7.394,0l0,22.348c0,7.672 2.353,12.843 9.074,12.843c4.957,0 8.402,-3.419 9.747,-6.672c0.42,-1.084 0.672,-2.418 0.672,-3.753l0,-24.766l7.394,0l0,29.354" style="fill:#313940;"/><path id="Fill.-3" d="M217.117,159.185c0,-5.17 -0.168,-9.34 -0.336,-13.176l6.637,0l0.336,6.921l0.168,0c3.025,-4.919 7.814,-7.838 14.452,-7.838c9.831,0 17.224,8.255 17.224,20.514c0,14.509 -8.906,21.68 -18.485,21.68c-5.377,0 -10.082,-2.334 -12.519,-6.337l-0.167,0l0,21.931l-7.31,0l0,-43.695Zm7.31,10.757c0,1.084 0.167,2.085 0.336,3.002c1.343,5.087 5.797,8.589 11.09,8.589c7.814,0 12.352,-6.337 12.352,-15.594c0,-8.088 -4.286,-15.01 -12.099,-15.01c-5.042,0 -9.747,3.586 -11.176,9.089c-0.251,0.918 -0.503,2.002 -0.503,3.003l0,6.921Z" style="fill:#313940;"/><path id="Fill.-4" d="M268.706,146.009l8.907,23.85c0.924,2.669 1.932,5.836 2.605,8.255l0.167,0c0.757,-2.419 1.597,-5.504 2.605,-8.422l8.066,-23.683l7.814,0l-11.09,28.77c-5.294,13.842 -8.907,20.931 -13.948,25.266c-3.613,3.169 -7.226,4.42 -9.074,4.753l-1.849,-6.17c1.849,-0.584 4.285,-1.752 6.47,-3.586c2.016,-1.585 4.537,-4.42 6.217,-8.172c0.336,-0.75 0.588,-1.334 0.588,-1.751c0,-0.418 -0.167,-1 -0.504,-1.918l-15.039,-37.192l8.065,0" style="fill:#313940;"/><path id="Fill.-5" d="M318.315,134.418l0,11.591l10.587,0l0,5.588l-10.587,0l0,21.764c0,5.003 1.429,7.839 5.546,7.839c1.932,0 3.36,-0.251 4.285,-0.501l0.336,5.504c-1.429,0.584 -3.697,1 -6.554,1c-3.445,0 -6.218,-1.083 -7.982,-3.084c-2.1,-2.169 -2.857,-5.755 -2.857,-10.508l0,-22.014l-6.301,0l0,-5.588l6.301,0l0,-9.673l7.226,-1.918" style="fill:#313940;"/><path id="Fill.-6" d="M342.514,167.523c0.167,9.924 6.554,14.01 13.947,14.01c5.293,0 8.486,-0.917 11.259,-2.085l1.26,5.253c-2.604,1.168 -7.057,2.502 -13.527,2.502c-12.519,0 -19.997,-8.172 -19.997,-20.346c0,-12.175 7.225,-21.765 19.073,-21.765c13.275,0 16.804,11.591 16.804,19.012c0,1.502 -0.168,2.669 -0.252,3.419l-28.567,0Zm21.677,-5.253c0.084,-4.67 -1.932,-11.925 -10.25,-11.925c-7.478,0 -10.756,6.838 -11.343,11.925l21.593,0Z" style="fill:#313940;"/><path id="Fill.-7" d="M382.173,158.601c0,-4.753 -0.084,-8.84 -0.337,-12.592l6.47,0l0.253,7.922l0.336,0c1.848,-5.42 6.301,-8.839 11.258,-8.839c0.84,0 1.429,0.083 2.101,0.251l0,6.921c-0.756,-0.167 -1.513,-0.25 -2.521,-0.25c-5.21,0 -8.906,3.919 -9.914,9.422c-0.168,1.001 -0.337,2.169 -0.337,3.419l0,21.515l-7.309,0l0,-27.769" style="fill:#313940;"/></g></g></g></svg>