<?xml version="1.0" encoding="UTF-8" standalone="no"?><!DOCTYPE svg PUBLIC "-//W3C//DTD SVG 1.1//EN" "http://www.w3.org/Graphics/SVG/1.1/DTD/svg11.dtd"><svg width="100%" height="100%" viewBox="0 0 542 742" version="1.1" xmlns="http://www.w3.org/2000/svg" xmlns:xlink="http://www.w3.org/1999/xlink" xml:space="preserve" style="fill-rule:evenodd;clip-rule:evenodd;stroke-linejoin:round;stroke-miterlimit:1.41421;"><g><path id="Feature--7" d="M541.096,11.589c0,-5.519 -4.481,-10 -10,-10l-520,0c-5.519,0 -10,4.481 -10,10l0,720c0,5.519 4.481,10 10,10l520,0c5.519,0 10,-4.481 10,-10l0,-720Z" style="fill:#f2f2f2;"/><clipPath id="_clip1"><path d="M541.096,11.589c0,-5.519 -4.481,-10 -10,-10l-520,0c-5.519,0 -10,4.481 -10,10l0,720c0,5.519 4.481,10 10,10l520,0c5.519,0 10,-4.481 10,-10l0,-720Z"/></clipPath><g clip-path="url(#_clip1)"><g id="Filler-Text" transform="matrix(2,0,0,2,60.8662,490.081)"><path d="M14.459,8.372l0.33,1.655l0.403,-1.582l2.314,-7.859l0.813,0l2.285,7.859l0.396,1.597l0.352,-1.67l1.926,-7.786l0.923,0l-2.732,10.664l-0.865,0l-2.417,-8.342l-0.271,-1.055l-0.263,1.055l-2.476,8.342l-0.864,0l-2.725,-10.664l0.923,0l1.948,7.786Z" style="fill:#54657e;fill-rule:nonzero;"/><path d="M28.573,11.396c-0.674,0 -1.283,-0.166 -1.827,-0.498c-0.545,-0.332 -0.968,-0.794 -1.271,-1.388c-0.303,-0.593 -0.454,-1.258 -0.454,-1.995l0,-0.315c0,-0.762 0.148,-1.448 0.443,-2.058c0.296,-0.611 0.707,-1.09 1.234,-1.44c0.528,-0.349 1.099,-0.523 1.714,-0.523c0.962,0 1.725,0.328 2.289,0.985c0.564,0.657 0.846,1.554 0.846,2.691l0,0.491l-5.654,0l0,0.169c0,0.898 0.257,1.646 0.772,2.245c0.515,0.598 1.164,0.897 1.945,0.897c0.469,0 0.882,-0.086 1.241,-0.257c0.359,-0.171 0.685,-0.444 0.978,-0.82l0.549,0.418c-0.644,0.932 -1.579,1.398 -2.805,1.398Zm-0.161,-7.47c-0.659,0 -1.215,0.241 -1.666,0.725c-0.452,0.483 -0.726,1.133 -0.824,1.948l4.753,0l0,-0.095c-0.024,-0.762 -0.241,-1.382 -0.652,-1.86c-0.41,-0.479 -0.947,-0.718 -1.611,-0.718Z" style="fill:#54657e;fill-rule:nonzero;"/><path d="M36.549,7.214c0,-1.24 0.275,-2.223 0.824,-2.948c0.55,-0.725 1.295,-1.087 2.238,-1.087c1.079,0 1.899,0.429 2.461,1.289l0.044,-1.143l0.82,0l0,7.764c0,1.02 -0.286,1.828 -0.857,2.424c-0.571,0.596 -1.345,0.894 -2.322,0.894c-0.551,0 -1.078,-0.124 -1.578,-0.37c-0.501,-0.247 -0.895,-0.575 -1.183,-0.985l0.491,-0.528c0.62,0.762 1.357,1.143 2.212,1.143c0.732,0 1.303,-0.216 1.714,-0.648c0.41,-0.432 0.622,-1.032 0.637,-1.798l0,-0.996c-0.562,0.781 -1.38,1.171 -2.454,1.171c-0.918,0 -1.655,-0.366 -2.212,-1.098c-0.556,-0.733 -0.835,-1.721 -0.835,-2.966l0,-0.118Zm0.887,0.154c0,1.011 0.202,1.808 0.607,2.392c0.406,0.583 0.977,0.875 1.714,0.875c1.079,0 1.844,-0.484 2.293,-1.45l0,-3.685c-0.205,-0.507 -0.501,-0.894 -0.886,-1.16c-0.386,-0.267 -0.85,-0.4 -1.392,-0.4c-0.737,0 -1.311,0.29 -1.721,0.868c-0.41,0.579 -0.615,1.432 -0.615,2.56Z" style="fill:#54657e;fill-rule:nonzero;"/><path d="M48.29,11.396c-0.674,0 -1.283,-0.166 -1.827,-0.498c-0.545,-0.332 -0.968,-0.794 -1.271,-1.388c-0.303,-0.593 -0.454,-1.258 -0.454,-1.995l0,-0.315c0,-0.762 0.147,-1.448 0.443,-2.058c0.295,-0.611 0.707,-1.09 1.234,-1.44c0.527,-0.349 1.099,-0.523 1.714,-0.523c0.962,0 1.725,0.328 2.289,0.985c0.564,0.657 0.846,1.554 0.846,2.691l0,0.491l-5.655,0l0,0.169c0,0.898 0.258,1.646 0.773,2.245c0.515,0.598 1.163,0.897 1.945,0.897c0.468,0 0.882,-0.086 1.241,-0.257c0.359,-0.171 0.685,-0.444 0.978,-0.82l0.549,0.418c-0.644,0.932 -1.579,1.398 -2.805,1.398Zm-0.161,-7.47c-0.659,0 -1.215,0.241 -1.666,0.725c-0.452,0.483 -0.727,1.133 -0.824,1.948l4.753,0l0,-0.095c-0.024,-0.762 -0.242,-1.382 -0.652,-1.86c-0.41,-0.479 -0.947,-0.718 -1.611,-0.718Z" style="fill:#54657e;fill-rule:nonzero;"/><path d="M54.333,1.296l0,2.029l1.64,0l0,0.718l-1.64,0l0,5.281c0,0.439 0.079,0.766 0.238,0.981c0.158,0.215 0.423,0.322 0.794,0.322c0.147,0 0.384,-0.024 0.711,-0.073l0.036,0.718c-0.229,0.083 -0.542,0.124 -0.937,0.124c-0.601,0 -1.038,-0.174 -1.311,-0.523c-0.274,-0.349 -0.41,-0.863 -0.41,-1.542l0,-5.288l-1.458,0l0,-0.718l1.458,0l0,-2.029l0.879,0Z" style="fill:#54657e;fill-rule:nonzero;"/><path d="M63.949,9.99l2.315,-6.665l0.944,0l-3.383,9.273l-0.176,0.41c-0.435,0.962 -1.106,1.443 -2.014,1.443c-0.21,0 -0.435,-0.034 -0.674,-0.103l-0.007,-0.725l0.454,0.044c0.429,0 0.777,-0.106 1.043,-0.319c0.267,-0.212 0.492,-0.577 0.678,-1.095l0.388,-1.069l-2.988,-7.859l0.959,0l2.461,6.665Z" style="fill:#54657e;fill-rule:nonzero;"/><path d="M67.97,7.17c0,-0.761 0.148,-1.447 0.443,-2.058c0.296,-0.61 0.713,-1.085 1.253,-1.424c0.539,-0.34 1.151,-0.509 1.834,-0.509c1.055,0 1.91,0.37 2.564,1.109c0.654,0.74 0.981,1.72 0.981,2.941l0,0.183c0,0.767 -0.147,1.456 -0.443,2.069c-0.295,0.613 -0.711,1.085 -1.249,1.417c-0.537,0.332 -1.149,0.498 -1.838,0.498c-1.05,0 -1.903,-0.369 -2.56,-1.109c-0.656,-0.74 -0.985,-1.72 -0.985,-2.941l0,-0.176Zm0.879,0.242c0,0.947 0.245,1.725 0.736,2.333c0.491,0.608 1.134,0.912 1.93,0.912c0.791,0 1.432,-0.304 1.923,-0.912c0.49,-0.608 0.736,-1.41 0.736,-2.406l0,-0.169c0,-0.605 -0.112,-1.159 -0.337,-1.662c-0.225,-0.503 -0.54,-0.893 -0.945,-1.168c-0.405,-0.276 -0.869,-0.414 -1.392,-0.414c-0.781,0 -1.418,0.306 -1.911,0.919c-0.493,0.613 -0.74,1.415 -0.74,2.406l0,0.161Z" style="fill:#54657e;fill-rule:nonzero;"/><path d="M81.952,10.247c-0.527,0.766 -1.369,1.149 -2.527,1.149c-0.844,0 -1.487,-0.245 -1.926,-0.736c-0.439,-0.49 -0.664,-1.217 -0.674,-2.179l0,-5.156l0.872,0l0,5.047c0,1.508 0.61,2.263 1.831,2.263c1.269,0 2.073,-0.525 2.409,-1.575l0,-5.735l0.879,0l0,7.925l-0.849,0l-0.015,-1.003Z" style="fill:#54657e;fill-rule:nonzero;"/><path d="M93.488,9.236c0,-0.435 -0.175,-0.784 -0.524,-1.048c-0.349,-0.263 -0.875,-0.469 -1.578,-0.618c-0.703,-0.149 -1.249,-0.32 -1.637,-0.513c-0.388,-0.193 -0.677,-0.429 -0.864,-0.707c-0.188,-0.278 -0.282,-0.615 -0.282,-1.011c0,-0.625 0.261,-1.141 0.783,-1.549c0.523,-0.407 1.192,-0.611 2.007,-0.611c0.884,0 1.593,0.218 2.128,0.655c0.534,0.437 0.802,1.007 0.802,1.71l-0.879,0c0,-0.463 -0.194,-0.849 -0.582,-1.157c-0.389,-0.307 -0.878,-0.461 -1.469,-0.461c-0.576,0 -1.039,0.128 -1.388,0.384c-0.349,0.257 -0.524,0.59 -0.524,1c0,0.396 0.146,0.702 0.436,0.919c0.291,0.218 0.821,0.417 1.59,0.597c0.769,0.181 1.345,0.374 1.728,0.579c0.383,0.205 0.668,0.451 0.853,0.74c0.186,0.288 0.279,0.637 0.279,1.047c0,0.669 -0.27,1.204 -0.81,1.604c-0.539,0.4 -1.244,0.6 -2.113,0.6c-0.923,0 -1.671,-0.223 -2.245,-0.67c-0.573,-0.446 -0.86,-1.012 -0.86,-1.695l0.879,0c0.034,0.512 0.25,0.912 0.648,1.197c0.398,0.286 0.924,0.429 1.578,0.429c0.611,0 1.104,-0.135 1.48,-0.403c0.376,-0.269 0.564,-0.608 0.564,-1.018Z" style="fill:#54657e;fill-rule:nonzero;"/><path d="M97.699,1.296l0,2.029l1.641,0l0,0.718l-1.641,0l0,5.281c0,0.439 0.08,0.766 0.238,0.981c0.159,0.215 0.424,0.322 0.795,0.322c0.146,0 0.383,-0.024 0.71,-0.073l0.037,0.718c-0.23,0.083 -0.542,0.124 -0.938,0.124c-0.6,0 -1.037,-0.174 -1.311,-0.523c-0.273,-0.349 -0.41,-0.863 -0.41,-1.542l0,-5.288l-1.457,0l0,-0.718l1.457,0l0,-2.029l0.879,0Z" style="fill:#54657e;fill-rule:nonzero;"/><path d="M106.159,11.25c-0.088,-0.249 -0.144,-0.618 -0.169,-1.106c-0.307,0.4 -0.699,0.709 -1.175,0.927c-0.476,0.217 -0.981,0.325 -1.513,0.325c-0.761,0 -1.378,-0.212 -1.849,-0.637c-0.471,-0.425 -0.707,-0.962 -0.707,-1.611c0,-0.772 0.321,-1.382 0.963,-1.831c0.642,-0.449 1.537,-0.674 2.685,-0.674l1.589,0l0,-0.901c0,-0.566 -0.175,-1.012 -0.524,-1.336c-0.349,-0.325 -0.858,-0.488 -1.527,-0.488c-0.61,0 -1.116,0.157 -1.516,0.469c-0.4,0.313 -0.601,0.689 -0.601,1.128l-0.878,-0.007c0,-0.63 0.292,-1.176 0.878,-1.637c0.586,-0.462 1.307,-0.692 2.161,-0.692c0.884,0 1.581,0.221 2.091,0.663c0.51,0.441 0.773,1.058 0.787,1.849l0,3.75c0,0.767 0.081,1.34 0.242,1.721l0,0.088l-0.937,0Zm-2.754,-0.63c0.586,0 1.109,-0.141 1.571,-0.425c0.461,-0.283 0.797,-0.661 1.007,-1.135l0,-1.743l-1.567,0c-0.875,0.01 -1.558,0.17 -2.051,0.48c-0.493,0.31 -0.74,0.736 -0.74,1.278c0,0.444 0.165,0.813 0.494,1.106c0.33,0.293 0.758,0.439 1.286,0.439Z" style="fill:#54657e;fill-rule:nonzero;"/><path d="M112.853,4.072c-0.186,-0.034 -0.383,-0.051 -0.593,-0.051c-0.547,0 -1.01,0.153 -1.388,0.458c-0.379,0.305 -0.648,0.748 -0.81,1.329l0,5.442l-0.871,0l0,-7.925l0.857,0l0.014,1.26c0.464,-0.938 1.209,-1.406 2.234,-1.406c0.245,0 0.437,0.031 0.579,0.095l-0.022,0.798Z" style="fill:#54657e;fill-rule:nonzero;"/><path d="M115.966,1.296l0,2.029l1.64,0l0,0.718l-1.64,0l0,5.281c0,0.439 0.079,0.766 0.238,0.981c0.159,0.215 0.423,0.322 0.795,0.322c0.146,0 0.383,-0.024 0.71,-0.073l0.037,0.718c-0.23,0.083 -0.542,0.124 -0.938,0.124c-0.6,0 -1.038,-0.174 -1.311,-0.523c-0.273,-0.349 -0.41,-0.863 -0.41,-1.542l0,-5.288l-1.458,0l0,-0.718l1.458,0l0,-2.029l0.879,0Z" style="fill:#54657e;fill-rule:nonzero;"/><path d="M122.492,11.396c-0.674,0 -1.283,-0.166 -1.828,-0.498c-0.544,-0.332 -0.968,-0.794 -1.27,-1.388c-0.303,-0.593 -0.455,-1.258 -0.455,-1.995l0,-0.315c0,-0.762 0.148,-1.448 0.444,-2.058c0.295,-0.611 0.706,-1.09 1.234,-1.44c0.527,-0.349 1.098,-0.523 1.714,-0.523c0.961,0 1.724,0.328 2.288,0.985c0.564,0.657 0.846,1.554 0.846,2.691l0,0.491l-5.654,0l0,0.169c0,0.898 0.258,1.646 0.773,2.245c0.515,0.598 1.163,0.897 1.944,0.897c0.469,0 0.883,-0.086 1.242,-0.257c0.359,-0.171 0.685,-0.444 0.978,-0.82l0.549,0.418c-0.645,0.932 -1.58,1.398 -2.805,1.398Zm-0.161,-7.47c-0.66,0 -1.215,0.241 -1.667,0.725c-0.451,0.483 -0.726,1.133 -0.824,1.948l4.754,0l0,-0.095c-0.025,-0.762 -0.242,-1.382 -0.652,-1.86c-0.41,-0.479 -0.947,-0.718 -1.611,-0.718Z" style="fill:#54657e;fill-rule:nonzero;"/><path d="M126.82,7.214c0,-1.23 0.275,-2.21 0.824,-2.94c0.55,-0.73 1.295,-1.095 2.238,-1.095c1.069,0 1.885,0.422 2.446,1.267l0,-4.446l0.872,0l0,11.25l-0.821,0l-0.036,-1.055c-0.562,0.801 -1.387,1.201 -2.476,1.201c-0.913,0 -1.649,-0.367 -2.208,-1.102c-0.559,-0.735 -0.839,-1.727 -0.839,-2.977l0,-0.103Zm0.887,0.154c0,1.011 0.202,1.808 0.607,2.392c0.406,0.583 0.977,0.875 1.714,0.875c1.079,0 1.846,-0.476 2.3,-1.428l0,-3.721c-0.454,-1.03 -1.216,-1.546 -2.285,-1.546c-0.737,0 -1.311,0.29 -1.721,0.868c-0.41,0.579 -0.615,1.432 -0.615,2.56Z" style="fill:#54657e;fill-rule:nonzero;"/><path d="M142.816,4.072c-0.185,-0.034 -0.383,-0.051 -0.593,-0.051c-0.547,0 -1.009,0.153 -1.388,0.458c-0.378,0.305 -0.648,0.748 -0.809,1.329l0,5.442l-0.872,0l0,-7.925l0.857,0l0.015,1.26c0.464,-0.938 1.208,-1.406 2.234,-1.406c0.244,0 0.437,0.031 0.578,0.095l-0.022,0.798Z" style="fill:#54657e;fill-rule:nonzero;"/><path d="M145.182,11.25l-0.879,0l0,-7.925l0.879,0l0,7.925Zm-1.033,-10.217c0,-0.166 0.054,-0.307 0.162,-0.421c0.107,-0.115 0.253,-0.173 0.439,-0.173c0.186,0 0.333,0.058 0.443,0.173c0.11,0.114 0.165,0.255 0.165,0.421c0,0.166 -0.055,0.305 -0.165,0.417c-0.11,0.113 -0.257,0.169 -0.443,0.169c-0.186,0 -0.332,-0.056 -0.439,-0.169c-0.108,-0.112 -0.162,-0.251 -0.162,-0.417Z" style="fill:#54657e;fill-rule:nonzero;"/><path d="M147.211,7.214c0,-1.24 0.275,-2.223 0.824,-2.948c0.549,-0.725 1.295,-1.087 2.237,-1.087c1.08,0 1.9,0.429 2.461,1.289l0.044,-1.143l0.821,0l0,7.764c0,1.02 -0.286,1.828 -0.857,2.424c-0.572,0.596 -1.346,0.894 -2.322,0.894c-0.552,0 -1.078,-0.124 -1.578,-0.37c-0.501,-0.247 -0.895,-0.575 -1.183,-0.985l0.49,-0.528c0.621,0.762 1.358,1.143 2.212,1.143c0.733,0 1.304,-0.216 1.714,-0.648c0.41,-0.432 0.623,-1.032 0.637,-1.798l0,-0.996c-0.561,0.781 -1.379,1.171 -2.453,1.171c-0.918,0 -1.655,-0.366 -2.212,-1.098c-0.557,-0.733 -0.835,-1.721 -0.835,-2.966l0,-0.118Zm0.886,0.154c0,1.011 0.203,1.808 0.608,2.392c0.405,0.583 0.977,0.875 1.714,0.875c1.079,0 1.843,-0.484 2.292,-1.45l0,-3.685c-0.205,-0.507 -0.5,-0.894 -0.886,-1.16c-0.386,-0.267 -0.849,-0.4 -1.391,-0.4c-0.738,0 -1.311,0.29 -1.722,0.868c-0.41,0.579 -0.615,1.432 -0.615,2.56Z" style="fill:#54657e;fill-rule:nonzero;"/><path d="M156.754,4.666c0.288,-0.474 0.657,-0.84 1.106,-1.099c0.45,-0.259 0.94,-0.388 1.473,-0.388c0.849,0 1.481,0.239 1.896,0.717c0.416,0.479 0.625,1.197 0.63,2.154l0,5.2l-0.871,0l0,-5.208c-0.005,-0.708 -0.155,-1.235 -0.451,-1.582c-0.295,-0.346 -0.767,-0.52 -1.417,-0.52c-0.542,0 -1.022,0.17 -1.439,0.509c-0.418,0.34 -0.726,0.798 -0.927,1.374l0,5.427l-0.871,0l0,-11.25l0.871,0l0,4.666Z" style="fill:#54657e;fill-rule:nonzero;"/><path d="M165.478,1.296l0,2.029l1.64,0l0,0.718l-1.64,0l0,5.281c0,0.439 0.079,0.766 0.238,0.981c0.158,0.215 0.423,0.322 0.794,0.322c0.147,0 0.384,-0.024 0.711,-0.073l0.036,0.718c-0.229,0.083 -0.542,0.124 -0.937,0.124c-0.601,0 -1.038,-0.174 -1.311,-0.523c-0.274,-0.349 -0.41,-0.863 -0.41,-1.542l0,-5.288l-1.458,0l0,-0.718l1.458,0l0,-2.029l0.879,0Z" style="fill:#54657e;fill-rule:nonzero;"/><path d="M174.479,9.426l0.132,0.681l0.176,-0.717l1.904,-6.065l0.747,0l1.882,6.013l0.205,0.835l0.169,-0.769l1.626,-6.079l0.908,0l-2.307,7.925l-0.747,0l-2.036,-6.284l-0.096,-0.432l-0.095,0.439l-1.999,6.277l-0.747,0l-2.3,-7.925l0.901,0l1.677,6.101Z" style="fill:#54657e;fill-rule:nonzero;"/><path d="M184.872,11.25l-0.879,0l0,-7.925l0.879,0l0,7.925Zm-1.033,-10.217c0,-0.166 0.054,-0.307 0.161,-0.421c0.108,-0.115 0.254,-0.173 0.44,-0.173c0.185,0 0.333,0.058 0.443,0.173c0.11,0.114 0.165,0.255 0.165,0.421c0,0.166 -0.055,0.305 -0.165,0.417c-0.11,0.113 -0.258,0.169 -0.443,0.169c-0.186,0 -0.332,-0.056 -0.44,-0.169c-0.107,-0.112 -0.161,-0.251 -0.161,-0.417Z" style="fill:#54657e;fill-rule:nonzero;"/><path d="M188.615,1.296l0,2.029l1.64,0l0,0.718l-1.64,0l0,5.281c0,0.439 0.079,0.766 0.238,0.981c0.158,0.215 0.423,0.322 0.794,0.322c0.147,0 0.384,-0.024 0.711,-0.073l0.037,0.718c-0.23,0.083 -0.542,0.124 -0.938,0.124c-0.601,0 -1.038,-0.174 -1.311,-0.523c-0.273,-0.349 -0.41,-0.863 -0.41,-1.542l0,-5.288l-1.458,0l0,-0.718l1.458,0l0,-2.029l0.879,0Z" style="fill:#54657e;fill-rule:nonzero;"/><path d="M192.943,4.666c0.288,-0.474 0.657,-0.84 1.106,-1.099c0.45,-0.259 0.94,-0.388 1.472,-0.388c0.85,0 1.482,0.239 1.897,0.717c0.415,0.479 0.625,1.197 0.63,2.154l0,5.2l-0.871,0l0,-5.208c-0.005,-0.708 -0.155,-1.235 -0.451,-1.582c-0.295,-0.346 -0.768,-0.52 -1.417,-0.52c-0.542,0 -1.022,0.17 -1.439,0.509c-0.418,0.34 -0.726,0.798 -0.927,1.374l0,5.427l-0.871,0l0,-11.25l0.871,0l0,4.666Z" style="fill:#54657e;fill-rule:nonzero;"/><path d="M7.036,35.657c0.611,0 1.122,-0.172 1.535,-0.517c0.412,-0.344 0.636,-0.789 0.67,-1.336l0.842,0c-0.024,0.483 -0.176,0.924 -0.454,1.322c-0.278,0.398 -0.648,0.709 -1.109,0.934c-0.462,0.224 -0.956,0.336 -1.484,0.336c-1.04,0 -1.864,-0.361 -2.472,-1.084c-0.607,-0.722 -0.911,-1.694 -0.911,-2.915l0,-0.263c0,-0.781 0.136,-1.472 0.41,-2.073c0.273,-0.601 0.665,-1.064 1.175,-1.392c0.511,-0.327 1.107,-0.49 1.791,-0.49c0.869,0 1.586,0.258 2.15,0.776c0.564,0.518 0.865,1.199 0.904,2.044l-0.842,0c-0.039,-0.621 -0.263,-1.121 -0.67,-1.502c-0.408,-0.381 -0.922,-0.571 -1.542,-0.571c-0.791,0 -1.405,0.285 -1.842,0.857c-0.437,0.571 -0.656,1.372 -0.656,2.402l0,0.256c0,1.011 0.219,1.8 0.656,2.366c0.437,0.567 1.053,0.85 1.849,0.85Z" style="fill:#54657e;fill-rule:nonzero;"/><path d="M11.35,32.17c0,-0.761 0.148,-1.447 0.443,-2.058c0.296,-0.61 0.713,-1.085 1.253,-1.424c0.539,-0.34 1.151,-0.509 1.835,-0.509c1.054,0 1.909,0.37 2.563,1.109c0.654,0.74 0.982,1.72 0.982,2.941l0,0.183c0,0.767 -0.148,1.456 -0.444,2.069c-0.295,0.613 -0.711,1.085 -1.248,1.417c-0.537,0.332 -1.15,0.498 -1.839,0.498c-1.05,0 -1.903,-0.369 -2.56,-1.109c-0.656,-0.74 -0.985,-1.72 -0.985,-2.941l0,-0.176Zm0.879,0.242c0,0.947 0.246,1.725 0.736,2.333c0.491,0.608 1.134,0.912 1.93,0.912c0.791,0 1.432,-0.304 1.923,-0.912c0.491,-0.608 0.736,-1.41 0.736,-2.406l0,-0.169c0,-0.605 -0.112,-1.159 -0.337,-1.662c-0.225,-0.503 -0.54,-0.893 -0.945,-1.168c-0.405,-0.276 -0.869,-0.414 -1.391,-0.414c-0.782,0 -1.419,0.306 -1.912,0.919c-0.493,0.613 -0.74,1.415 -0.74,2.406l0,0.161Z" style="fill:#54657e;fill-rule:nonzero;"/><path d="M21.07,28.325l0.029,1.355c0.298,-0.488 0.669,-0.86 1.113,-1.117c0.444,-0.256 0.935,-0.384 1.472,-0.384c0.85,0 1.482,0.239 1.897,0.717c0.415,0.479 0.625,1.197 0.63,2.154l0,5.2l-0.871,0l0,-5.208c-0.005,-0.708 -0.155,-1.235 -0.451,-1.582c-0.295,-0.346 -0.768,-0.52 -1.417,-0.52c-0.542,0 -1.022,0.17 -1.439,0.509c-0.418,0.34 -0.727,0.798 -0.927,1.374l0,5.427l-0.871,0l0,-7.925l0.835,0Z" style="fill:#54657e;fill-rule:nonzero;"/><path d="M29.837,26.296l0,2.029l1.64,0l0,0.718l-1.64,0l0,5.281c0,0.439 0.079,0.766 0.238,0.981c0.158,0.215 0.423,0.322 0.794,0.322c0.147,0 0.384,-0.024 0.711,-0.073l0.036,0.718c-0.229,0.083 -0.542,0.124 -0.937,0.124c-0.601,0 -1.038,-0.174 -1.311,-0.523c-0.274,-0.349 -0.41,-0.863 -0.41,-1.542l0,-5.288l-1.458,0l0,-0.718l1.458,0l0,-2.029l0.879,0Z" style="fill:#54657e;fill-rule:nonzero;"/><path d="M38.296,36.25c-0.088,-0.249 -0.144,-0.618 -0.168,-1.106c-0.308,0.4 -0.7,0.709 -1.176,0.927c-0.476,0.217 -0.98,0.325 -1.512,0.325c-0.762,0 -1.378,-0.212 -1.85,-0.637c-0.471,-0.425 -0.706,-0.962 -0.706,-1.611c0,-0.772 0.321,-1.382 0.963,-1.831c0.642,-0.449 1.537,-0.674 2.684,-0.674l1.589,0l0,-0.901c0,-0.566 -0.174,-1.012 -0.523,-1.336c-0.349,-0.325 -0.858,-0.488 -1.527,-0.488c-0.611,0 -1.116,0.157 -1.517,0.469c-0.4,0.313 -0.6,0.689 -0.6,1.128l-0.879,-0.007c0,-0.63 0.293,-1.176 0.879,-1.637c0.586,-0.462 1.306,-0.692 2.161,-0.692c0.883,0 1.58,0.221 2.091,0.663c0.51,0.441 0.772,1.058 0.787,1.849l0,3.75c0,0.767 0.08,1.34 0.242,1.721l0,0.088l-0.938,0Zm-2.754,-0.63c0.586,0 1.11,-0.141 1.571,-0.425c0.462,-0.283 0.797,-0.661 1.007,-1.135l0,-1.743l-1.567,0c-0.874,0.01 -1.558,0.17 -2.051,0.48c-0.493,0.31 -0.74,0.736 -0.74,1.278c0,0.444 0.165,0.813 0.495,1.106c0.329,0.293 0.758,0.439 1.285,0.439Z" style="fill:#54657e;fill-rule:nonzero;"/><path d="M42.31,36.25l-0.879,0l0,-7.925l0.879,0l0,7.925Zm-1.033,-10.217c0,-0.166 0.054,-0.307 0.161,-0.421c0.108,-0.115 0.254,-0.173 0.44,-0.173c0.185,0 0.333,0.058 0.443,0.173c0.11,0.114 0.165,0.255 0.165,0.421c0,0.166 -0.055,0.305 -0.165,0.417c-0.11,0.112 -0.258,0.169 -0.443,0.169c-0.186,0 -0.332,-0.057 -0.44,-0.169c-0.107,-0.112 -0.161,-0.251 -0.161,-0.417Z" style="fill:#54657e;fill-rule:nonzero;"/><path d="M45.525,28.325l0.029,1.355c0.298,-0.488 0.669,-0.86 1.114,-1.117c0.444,-0.256 0.935,-0.384 1.472,-0.384c0.849,0 1.482,0.239 1.897,0.717c0.415,0.479 0.625,1.197 0.63,2.154l0,5.2l-0.872,0l0,-5.208c-0.005,-0.708 -0.155,-1.235 -0.45,-1.582c-0.296,-0.346 -0.768,-0.52 -1.418,-0.52c-0.542,0 -1.021,0.17 -1.439,0.509c-0.417,0.34 -0.726,0.798 -0.926,1.374l0,5.427l-0.872,0l0,-7.925l0.835,0Z" style="fill:#54657e;fill-rule:nonzero;"/><path d="M55.999,36.396c-0.674,0 -1.283,-0.166 -1.828,-0.498c-0.544,-0.332 -0.968,-0.794 -1.27,-1.388c-0.303,-0.593 -0.454,-1.258 -0.454,-1.995l0,-0.315c0,-0.762 0.147,-1.448 0.443,-2.058c0.295,-0.611 0.706,-1.09 1.234,-1.44c0.527,-0.349 1.098,-0.523 1.714,-0.523c0.962,0 1.724,0.328 2.288,0.985c0.564,0.657 0.846,1.554 0.846,2.691l0,0.491l-5.654,0l0,0.169c0,0.898 0.258,1.646 0.773,2.245c0.515,0.598 1.163,0.897 1.944,0.897c0.469,0 0.883,-0.086 1.242,-0.257c0.359,-0.171 0.685,-0.444 0.978,-0.82l0.549,0.418c-0.645,0.932 -1.58,1.398 -2.805,1.398Zm-0.161,-7.47c-0.66,0 -1.215,0.241 -1.667,0.725c-0.451,0.483 -0.726,1.133 -0.824,1.948l4.754,0l0,-0.095c-0.025,-0.762 -0.242,-1.382 -0.652,-1.86c-0.41,-0.479 -0.947,-0.718 -1.611,-0.718Z" style="fill:#54657e;fill-rule:nonzero;"/><path d="M64.341,29.072c-0.185,-0.034 -0.383,-0.051 -0.593,-0.051c-0.547,0 -1.01,0.153 -1.388,0.458c-0.379,0.305 -0.648,0.748 -0.809,1.329l0,5.442l-0.872,0l0,-7.925l0.857,0l0.015,1.26c0.463,-0.938 1.208,-1.406 2.233,-1.406c0.245,0 0.437,0.031 0.579,0.095l-0.022,0.798Z" style="fill:#54657e;fill-rule:nonzero;"/><path d="M70.471,34.236c0,-0.435 -0.174,-0.784 -0.523,-1.048c-0.349,-0.263 -0.876,-0.469 -1.579,-0.618c-0.703,-0.149 -1.248,-0.32 -1.637,-0.513c-0.388,-0.193 -0.676,-0.429 -0.864,-0.707c-0.188,-0.278 -0.282,-0.615 -0.282,-1.011c0,-0.625 0.261,-1.141 0.784,-1.549c0.522,-0.407 1.191,-0.611 2.007,-0.611c0.883,0 1.593,0.218 2.127,0.655c0.535,0.437 0.802,1.007 0.802,1.71l-0.879,0c0,-0.463 -0.194,-0.849 -0.582,-1.157c-0.388,-0.307 -0.877,-0.461 -1.468,-0.461c-0.576,0 -1.039,0.128 -1.388,0.384c-0.349,0.257 -0.524,0.59 -0.524,1c0,0.396 0.145,0.702 0.436,0.919c0.29,0.218 0.82,0.417 1.589,0.597c0.769,0.181 1.345,0.374 1.729,0.579c0.383,0.205 0.667,0.451 0.853,0.74c0.186,0.288 0.278,0.637 0.278,1.047c0,0.669 -0.269,1.204 -0.809,1.604c-0.54,0.4 -1.244,0.6 -2.113,0.6c-0.923,0 -1.671,-0.223 -2.245,-0.67c-0.574,-0.446 -0.861,-1.012 -0.861,-1.695l0.879,0c0.035,0.512 0.251,0.912 0.649,1.197c0.398,0.286 0.924,0.429 1.578,0.429c0.61,0 1.103,-0.135 1.479,-0.403c0.376,-0.269 0.564,-0.608 0.564,-1.018Z" style="fill:#54657e;fill-rule:nonzero;"/><path d="M77.598,36.25l0,-7.207l-1.311,0l0,-0.718l1.311,0l0,-0.959c0,-0.811 0.206,-1.433 0.619,-1.868c0.412,-0.435 0.987,-0.652 1.725,-0.652c0.332,0 0.642,0.042 0.93,0.125l-0.066,0.732c-0.244,-0.058 -0.51,-0.088 -0.798,-0.088c-0.484,0 -0.86,0.15 -1.128,0.451c-0.269,0.3 -0.403,0.726 -0.403,1.278l0,0.981l1.889,0l0,0.718l-1.889,0l0,7.207l-0.879,0Z" style="fill:#54657e;fill-rule:nonzero;"/><path d="M84.827,36.396c-0.674,0 -1.283,-0.166 -1.828,-0.498c-0.544,-0.332 -0.968,-0.794 -1.27,-1.388c-0.303,-0.593 -0.454,-1.258 -0.454,-1.995l0,-0.315c0,-0.762 0.147,-1.448 0.443,-2.058c0.295,-0.611 0.707,-1.09 1.234,-1.44c0.527,-0.349 1.099,-0.523 1.714,-0.523c0.962,0 1.725,0.328 2.289,0.985c0.564,0.657 0.846,1.554 0.846,2.691l0,0.491l-5.655,0l0,0.169c0,0.898 0.258,1.646 0.773,2.245c0.515,0.598 1.163,0.897 1.945,0.897c0.468,0 0.882,-0.086 1.241,-0.257c0.359,-0.171 0.685,-0.444 0.978,-0.82l0.549,0.418c-0.644,0.932 -1.58,1.398 -2.805,1.398Zm-0.161,-7.47c-0.659,0 -1.215,0.241 -1.667,0.725c-0.451,0.483 -0.726,1.133 -0.823,1.948l4.753,0l0,-0.095c-0.024,-0.762 -0.242,-1.382 -0.652,-1.86c-0.41,-0.479 -0.947,-0.718 -1.611,-0.718Z" style="fill:#54657e;fill-rule:nonzero;"/><path d="M94.51,36.25c-0.088,-0.249 -0.145,-0.618 -0.169,-1.106c-0.308,0.4 -0.699,0.709 -1.175,0.927c-0.477,0.217 -0.981,0.325 -1.513,0.325c-0.762,0 -1.378,-0.212 -1.849,-0.637c-0.471,-0.425 -0.707,-0.962 -0.707,-1.611c0,-0.772 0.321,-1.382 0.963,-1.831c0.642,-0.449 1.537,-0.674 2.684,-0.674l1.59,0l0,-0.901c0,-0.566 -0.175,-1.012 -0.524,-1.336c-0.349,-0.325 -0.858,-0.488 -1.527,-0.488c-0.61,0 -1.116,0.157 -1.516,0.469c-0.401,0.313 -0.601,0.689 -0.601,1.128l-0.879,-0.007c0,-0.63 0.293,-1.176 0.879,-1.637c0.586,-0.462 1.306,-0.692 2.161,-0.692c0.884,0 1.581,0.221 2.091,0.663c0.51,0.441 0.773,1.058 0.787,1.849l0,3.75c0,0.767 0.081,1.34 0.242,1.721l0,0.088l-0.937,0Zm-2.754,-0.63c0.586,0 1.109,-0.141 1.571,-0.425c0.461,-0.283 0.797,-0.661 1.007,-1.135l0,-1.743l-1.568,0c-0.874,0.01 -1.557,0.17 -2.05,0.48c-0.494,0.31 -0.74,0.736 -0.74,1.278c0,0.444 0.165,0.813 0.494,1.106c0.33,0.293 0.758,0.439 1.286,0.439Z" style="fill:#54657e;fill-rule:nonzero;"/><path d="M98.904,26.296l0,2.029l1.641,0l0,0.718l-1.641,0l0,5.281c0,0.439 0.079,0.766 0.238,0.981c0.159,0.215 0.424,0.322 0.795,0.322c0.146,0 0.383,-0.024 0.71,-0.073l0.037,0.718c-0.23,0.083 -0.542,0.124 -0.938,0.124c-0.6,0 -1.037,-0.174 -1.311,-0.523c-0.273,-0.349 -0.41,-0.863 -0.41,-1.542l0,-5.288l-1.457,0l0,-0.718l1.457,0l0,-2.029l0.879,0Z" style="fill:#54657e;fill-rule:nonzero;"/><path d="M107.459,35.247c-0.528,0.766 -1.37,1.149 -2.527,1.149c-0.845,0 -1.487,-0.245 -1.926,-0.736c-0.44,-0.49 -0.664,-1.217 -0.674,-2.179l0,-5.156l0.871,0l0,5.047c0,1.508 0.611,2.263 1.831,2.263c1.27,0 2.073,-0.525 2.41,-1.575l0,-5.735l0.879,0l0,7.925l-0.85,0l-0.014,-1.003Z" style="fill:#54657e;fill-rule:nonzero;"/><path d="M114.263,29.072c-0.186,-0.034 -0.383,-0.051 -0.593,-0.051c-0.547,0 -1.01,0.153 -1.388,0.458c-0.379,0.305 -0.648,0.748 -0.81,1.329l0,5.442l-0.871,0l0,-7.925l0.857,0l0.014,1.26c0.464,-0.938 1.209,-1.406 2.234,-1.406c0.244,0 0.437,0.031 0.579,0.095l-0.022,0.798Z" style="fill:#54657e;fill-rule:nonzero;"/><path d="M116.629,36.25l-0.879,0l0,-7.925l0.879,0l0,7.925Zm-1.033,-10.217c0,-0.166 0.054,-0.307 0.161,-0.421c0.107,-0.115 0.254,-0.173 0.44,-0.173c0.185,0 0.333,0.058 0.443,0.173c0.109,0.114 0.164,0.255 0.164,0.421c0,0.166 -0.055,0.305 -0.164,0.417c-0.11,0.112 -0.258,0.169 -0.443,0.169c-0.186,0 -0.333,-0.057 -0.44,-0.169c-0.107,-0.112 -0.161,-0.251 -0.161,-0.417Z" style="fill:#54657e;fill-rule:nonzero;"/><path d="M119.844,28.325l0.029,1.355c0.298,-0.488 0.669,-0.86 1.114,-1.117c0.444,-0.256 0.935,-0.384 1.472,-0.384c0.849,0 1.482,0.239 1.897,0.717c0.415,0.479 0.625,1.197 0.63,2.154l0,5.2l-0.872,0l0,-5.208c-0.005,-0.708 -0.155,-1.235 -0.45,-1.582c-0.296,-0.346 -0.768,-0.52 -1.418,-0.52c-0.542,0 -1.021,0.17 -1.439,0.509c-0.417,0.34 -0.726,0.798 -0.926,1.374l0,5.427l-0.872,0l0,-7.925l0.835,0Z" style="fill:#54657e;fill-rule:nonzero;"/><path d="M126.897,32.214c0,-1.24 0.275,-2.223 0.824,-2.948c0.549,-0.725 1.295,-1.087 2.238,-1.087c1.079,0 1.899,0.429 2.461,1.289l0.044,-1.143l0.82,0l0,7.764c0,1.02 -0.286,1.828 -0.857,2.424c-0.571,0.596 -1.345,0.894 -2.322,0.894c-0.552,0 -1.078,-0.124 -1.578,-0.37c-0.501,-0.247 -0.895,-0.575 -1.183,-0.985l0.491,-0.528c0.62,0.762 1.357,1.143 2.212,1.143c0.732,0 1.303,-0.216 1.713,-0.648c0.411,-0.432 0.623,-1.032 0.638,-1.798l0,-0.996c-0.562,0.781 -1.38,1.171 -2.454,1.171c-0.918,0 -1.655,-0.366 -2.212,-1.098c-0.556,-0.733 -0.835,-1.721 -0.835,-2.966l0,-0.118Zm0.886,0.154c0,1.011 0.203,1.808 0.608,2.392c0.406,0.583 0.977,0.875 1.714,0.875c1.079,0 1.843,-0.484 2.293,-1.45l0,-3.685c-0.205,-0.507 -0.501,-0.894 -0.887,-1.16c-0.385,-0.267 -0.849,-0.4 -1.391,-0.4c-0.737,0 -1.311,0.29 -1.721,0.868c-0.41,0.579 -0.616,1.432 -0.616,2.56Z" style="fill:#54657e;fill-rule:nonzero;"/><path d="M140.051,28.325l0.03,1.355c0.298,-0.488 0.669,-0.86 1.113,-1.117c0.444,-0.256 0.935,-0.384 1.472,-0.384c0.85,0 1.482,0.239 1.897,0.717c0.415,0.479 0.625,1.197 0.63,2.154l0,5.2l-0.871,0l0,-5.208c-0.005,-0.708 -0.156,-1.235 -0.451,-1.582c-0.295,-0.346 -0.768,-0.52 -1.417,-0.52c-0.542,0 -1.022,0.17 -1.439,0.509c-0.418,0.34 -0.727,0.798 -0.927,1.374l0,5.427l-0.871,0l0,-7.925l0.834,0Z" style="fill:#54657e;fill-rule:nonzero;"/><path d="M146.973,32.17c0,-0.761 0.148,-1.447 0.443,-2.058c0.295,-0.61 0.713,-1.085 1.252,-1.424c0.54,-0.34 1.152,-0.509 1.835,-0.509c1.055,0 1.909,0.37 2.564,1.109c0.654,0.74 0.981,1.72 0.981,2.941l0,0.183c0,0.767 -0.148,1.456 -0.443,2.069c-0.295,0.613 -0.712,1.085 -1.249,1.417c-0.537,0.332 -1.15,0.498 -1.838,0.498c-1.05,0 -1.903,-0.369 -2.56,-1.109c-0.657,-0.74 -0.985,-1.72 -0.985,-2.941l0,-0.176Zm0.879,0.242c0,0.947 0.245,1.725 0.736,2.333c0.491,0.608 1.134,0.912 1.93,0.912c0.791,0 1.432,-0.304 1.922,-0.912c0.491,-0.608 0.736,-1.41 0.736,-2.406l0,-0.169c0,-0.605 -0.112,-1.159 -0.336,-1.662c-0.225,-0.503 -0.54,-0.893 -0.945,-1.168c-0.406,-0.276 -0.869,-0.414 -1.392,-0.414c-0.781,0 -1.418,0.306 -1.911,0.919c-0.494,0.613 -0.74,1.415 -0.74,2.406l0,0.161Z" style="fill:#54657e;fill-rule:nonzero;"/><path d="M157.219,26.296l0,2.029l1.641,0l0,0.718l-1.641,0l0,5.281c0,0.439 0.08,0.766 0.239,0.981c0.158,0.215 0.423,0.322 0.794,0.322c0.147,0 0.383,-0.024 0.711,-0.073l0.036,0.718c-0.229,0.083 -0.542,0.124 -0.937,0.124c-0.601,0 -1.038,-0.174 -1.311,-0.523c-0.274,-0.349 -0.41,-0.863 -0.41,-1.542l0,-5.288l-1.458,0l0,-0.718l1.458,0l0,-2.029l0.878,0Z" style="fill:#54657e;fill-rule:nonzero;"/><path d="M163.745,36.396c-0.673,0 -1.283,-0.166 -1.827,-0.498c-0.544,-0.332 -0.968,-0.794 -1.271,-1.388c-0.303,-0.593 -0.454,-1.258 -0.454,-1.995l0,-0.315c0,-0.762 0.148,-1.448 0.443,-2.058c0.296,-0.611 0.707,-1.09 1.234,-1.44c0.528,-0.349 1.099,-0.523 1.714,-0.523c0.962,0 1.725,0.328 2.289,0.985c0.564,0.657 0.846,1.554 0.846,2.691l0,0.491l-5.654,0l0,0.169c0,0.898 0.257,1.646 0.772,2.245c0.516,0.598 1.164,0.897 1.945,0.897c0.469,0 0.883,-0.086 1.241,-0.257c0.359,-0.171 0.685,-0.444 0.978,-0.82l0.55,0.418c-0.645,0.932 -1.58,1.398 -2.806,1.398Zm-0.161,-7.47c-0.659,0 -1.214,0.241 -1.666,0.725c-0.452,0.483 -0.726,1.133 -0.824,1.948l4.753,0l0,-0.095c-0.024,-0.762 -0.241,-1.382 -0.651,-1.86c-0.411,-0.479 -0.948,-0.718 -1.612,-0.718Z" style="fill:#54657e;fill-rule:nonzero;"/><path d="M174.805,32.368c0,1.236 -0.274,2.216 -0.82,2.941c-0.547,0.725 -1.282,1.087 -2.205,1.087c-1.104,0 -1.938,-0.41 -2.505,-1.23l-0.036,1.084l-0.821,0l0,-11.25l0.872,0l0,4.475c0.556,-0.864 1.382,-1.296 2.475,-1.296c0.938,0 1.679,0.357 2.223,1.073c0.545,0.715 0.817,1.71 0.817,2.984l0,0.132Zm-0.879,-0.154c0,-1.045 -0.203,-1.851 -0.608,-2.42c-0.405,-0.569 -0.976,-0.854 -1.714,-0.854c-0.561,0 -1.037,0.138 -1.428,0.414c-0.391,0.276 -0.686,0.68 -0.886,1.212l0,3.575c0.439,0.996 1.216,1.494 2.329,1.494c0.723,0 1.288,-0.286 1.695,-0.857c0.408,-0.571 0.612,-1.426 0.612,-2.564Z" style="fill:#54657e;fill-rule:nonzero;"/><path d="M176.255,32.17c0,-0.761 0.148,-1.447 0.443,-2.058c0.296,-0.61 0.713,-1.085 1.253,-1.424c0.539,-0.34 1.151,-0.509 1.834,-0.509c1.055,0 1.91,0.37 2.564,1.109c0.654,0.74 0.981,1.72 0.981,2.941l0,0.183c0,0.767 -0.147,1.456 -0.443,2.069c-0.295,0.613 -0.711,1.085 -1.249,1.417c-0.537,0.332 -1.149,0.498 -1.838,0.498c-1.05,0 -1.903,-0.369 -2.56,-1.109c-0.657,-0.74 -0.985,-1.72 -0.985,-2.941l0,-0.176Zm0.879,0.242c0,0.947 0.245,1.725 0.736,2.333c0.491,0.608 1.134,0.912 1.93,0.912c0.791,0 1.432,-0.304 1.923,-0.912c0.49,-0.608 0.736,-1.41 0.736,-2.406l0,-0.169c0,-0.605 -0.113,-1.159 -0.337,-1.662c-0.225,-0.503 -0.54,-0.893 -0.945,-1.168c-0.405,-0.276 -0.869,-0.414 -1.392,-0.414c-0.781,0 -1.418,0.306 -1.911,0.919c-0.493,0.613 -0.74,1.415 -0.74,2.406l0,0.161Z" style="fill:#54657e;fill-rule:nonzero;"/><path d="M184.656,32.17c0,-0.761 0.148,-1.447 0.443,-2.058c0.296,-0.61 0.713,-1.085 1.253,-1.424c0.539,-0.34 1.151,-0.509 1.834,-0.509c1.055,0 1.909,0.37 2.564,1.109c0.654,0.74 0.981,1.72 0.981,2.941l0,0.183c0,0.767 -0.148,1.456 -0.443,2.069c-0.295,0.613 -0.712,1.085 -1.249,1.417c-0.537,0.332 -1.15,0.498 -1.838,0.498c-1.05,0 -1.903,-0.369 -2.56,-1.109c-0.657,-0.74 -0.985,-1.72 -0.985,-2.941l0,-0.176Zm0.879,0.242c0,0.947 0.245,1.725 0.736,2.333c0.491,0.608 1.134,0.912 1.93,0.912c0.791,0 1.432,-0.304 1.923,-0.912c0.49,-0.608 0.736,-1.41 0.736,-2.406l0,-0.169c0,-0.605 -0.113,-1.159 -0.337,-1.662c-0.225,-0.503 -0.54,-0.893 -0.945,-1.168c-0.405,-0.276 -0.869,-0.414 -1.392,-0.414c-0.781,0 -1.418,0.306 -1.911,0.919c-0.494,0.613 -0.74,1.415 -0.74,2.406l0,0.161Z" style="fill:#54657e;fill-rule:nonzero;"/><path d="M195.423,32.258l-1.004,0.967l0,3.025l-0.879,0l0,-11.25l0.879,0l0,7.2l0.828,-0.894l3.032,-2.981l1.106,0l-3.362,3.34l3.655,4.585l-1.047,0l-3.208,-3.992Z" style="fill:#54657e;fill-rule:nonzero;"/><path d="M205.633,34.236c0,-0.435 -0.175,-0.784 -0.524,-1.048c-0.349,-0.263 -0.875,-0.469 -1.578,-0.618c-0.704,-0.149 -1.249,-0.32 -1.637,-0.513c-0.389,-0.193 -0.677,-0.429 -0.865,-0.707c-0.188,-0.278 -0.282,-0.615 -0.282,-1.011c0,-0.625 0.262,-1.141 0.784,-1.549c0.522,-0.407 1.191,-0.611 2.007,-0.611c0.884,0 1.593,0.218 2.128,0.655c0.534,0.437 0.802,1.007 0.802,1.71l-0.879,0c0,-0.463 -0.194,-0.849 -0.583,-1.157c-0.388,-0.307 -0.877,-0.461 -1.468,-0.461c-0.576,0 -1.039,0.128 -1.388,0.384c-0.349,0.257 -0.524,0.59 -0.524,1c0,0.396 0.145,0.702 0.436,0.919c0.291,0.218 0.82,0.417 1.589,0.597c0.769,0.181 1.346,0.374 1.729,0.579c0.383,0.205 0.668,0.451 0.853,0.74c0.186,0.288 0.278,0.637 0.278,1.047c0,0.669 -0.269,1.204 -0.809,1.604c-0.539,0.4 -1.244,0.6 -2.113,0.6c-0.923,0 -1.671,-0.223 -2.245,-0.67c-0.574,-0.446 -0.86,-1.012 -0.86,-1.695l0.879,0c0.034,0.512 0.25,0.912 0.648,1.197c0.398,0.286 0.924,0.429 1.578,0.429c0.61,0 1.104,-0.135 1.48,-0.403c0.376,-0.269 0.564,-0.608 0.564,-1.018Z" style="fill:#54657e;fill-rule:nonzero;"/><path d="M38.296,61.25l0,-7.207l-1.311,0l0,-0.718l1.311,0l0,-0.959c0,-0.811 0.206,-1.433 0.619,-1.868c0.413,-0.435 0.988,-0.652 1.725,-0.652c0.332,0 0.642,0.042 0.93,0.125l-0.066,0.732c-0.244,-0.058 -0.51,-0.088 -0.798,-0.088c-0.484,0 -0.86,0.15 -1.128,0.451c-0.269,0.3 -0.403,0.726 -0.403,1.278l0,0.981l1.89,0l0,0.718l-1.89,0l0,7.207l-0.879,0Z" style="fill:#54657e;fill-rule:nonzero;"/><path d="M46.294,54.072c-0.185,-0.034 -0.383,-0.051 -0.593,-0.051c-0.547,0 -1.01,0.153 -1.388,0.458c-0.378,0.305 -0.648,0.748 -0.809,1.329l0,5.442l-0.872,0l0,-7.925l0.857,0l0.015,1.26c0.464,-0.938 1.208,-1.406 2.234,-1.406c0.244,0 0.437,0.031 0.578,0.095l-0.022,0.798Z" style="fill:#54657e;fill-rule:nonzero;"/><path d="M47.049,57.17c0,-0.761 0.147,-1.447 0.443,-2.058c0.295,-0.61 0.713,-1.085 1.252,-1.424c0.54,-0.34 1.151,-0.509 1.835,-0.509c1.055,0 1.909,0.37 2.563,1.109c0.655,0.74 0.982,1.72 0.982,2.941l0,0.183c0,0.767 -0.148,1.456 -0.443,2.069c-0.296,0.613 -0.712,1.085 -1.249,1.417c-0.537,0.332 -1.15,0.498 -1.839,0.498c-1.049,0 -1.903,-0.369 -2.559,-1.109c-0.657,-0.74 -0.985,-1.72 -0.985,-2.941l0,-0.176Zm0.878,0.242c0,0.947 0.246,1.725 0.737,2.333c0.49,0.608 1.134,0.912 1.929,0.912c0.792,0 1.432,-0.304 1.923,-0.912c0.491,-0.608 0.736,-1.41 0.736,-2.406l0,-0.169c0,-0.605 -0.112,-1.159 -0.337,-1.662c-0.224,-0.503 -0.539,-0.893 -0.945,-1.168c-0.405,-0.276 -0.869,-0.414 -1.391,-0.414c-0.781,0 -1.419,0.306 -1.912,0.919c-0.493,0.613 -0.74,1.415 -0.74,2.406l0,0.161Z" style="fill:#54657e;fill-rule:nonzero;"/><path d="M56.731,53.325l0.029,1.289c0.293,-0.478 0.66,-0.837 1.099,-1.076c0.44,-0.24 0.928,-0.359 1.465,-0.359c1.25,0 2.043,0.512 2.38,1.538c0.284,-0.493 0.662,-0.873 1.136,-1.139c0.473,-0.266 0.996,-0.399 1.567,-0.399c1.699,0 2.566,0.927 2.6,2.783l0,5.288l-0.879,0l0,-5.222c-0.005,-0.708 -0.157,-1.233 -0.458,-1.575c-0.3,-0.342 -0.789,-0.513 -1.468,-0.513c-0.63,0.01 -1.162,0.214 -1.597,0.612c-0.434,0.398 -0.676,0.883 -0.725,1.454l0,5.244l-0.879,0l0,-5.288c-0.005,-0.679 -0.165,-1.185 -0.48,-1.52c-0.314,-0.334 -0.799,-0.502 -1.453,-0.502c-0.552,0 -1.026,0.158 -1.421,0.473c-0.396,0.315 -0.689,0.782 -0.879,1.402l0,5.435l-0.879,0l0,-7.925l0.842,0Z" style="fill:#54657e;fill-rule:nonzero;"/><path d="M73.98,56.907l0,4.343l-0.901,0l0,-10.664l3.633,0c1.108,0 1.983,0.283 2.625,0.85c0.642,0.566 0.964,1.345 0.964,2.336c0,1.001 -0.309,1.774 -0.927,2.318c-0.618,0.545 -1.512,0.817 -2.684,0.817l-2.71,0Zm0,-0.762l2.732,0c0.874,0 1.54,-0.207 1.999,-0.623c0.459,-0.415 0.689,-0.993 0.689,-1.735c0,-0.738 -0.229,-1.325 -0.685,-1.762c-0.457,-0.437 -1.105,-0.66 -1.945,-0.67l-2.79,0l0,4.79Z" style="fill:#54657e;fill-rule:nonzero;"/><path d="M85.772,54.072c-0.186,-0.034 -0.384,-0.051 -0.594,-0.051c-0.546,0 -1.009,0.153 -1.387,0.458c-0.379,0.305 -0.649,0.748 -0.81,1.329l0,5.442l-0.871,0l0,-7.925l0.857,0l0.014,1.26c0.464,-0.938 1.209,-1.406 2.234,-1.406c0.244,0 0.437,0.031 0.579,0.095l-0.022,0.798Z" style="fill:#54657e;fill-rule:nonzero;"/><path d="M86.526,57.17c0,-0.761 0.148,-1.447 0.443,-2.058c0.296,-0.61 0.713,-1.085 1.253,-1.424c0.539,-0.34 1.151,-0.509 1.834,-0.509c1.055,0 1.91,0.37 2.564,1.109c0.654,0.74 0.981,1.72 0.981,2.941l0,0.183c0,0.767 -0.147,1.456 -0.443,2.069c-0.295,0.613 -0.711,1.085 -1.249,1.417c-0.537,0.332 -1.149,0.498 -1.838,0.498c-1.05,0 -1.903,-0.369 -2.56,-1.109c-0.657,-0.74 -0.985,-1.72 -0.985,-2.941l0,-0.176Zm0.879,0.242c0,0.947 0.245,1.725 0.736,2.333c0.491,0.608 1.134,0.912 1.93,0.912c0.791,0 1.432,-0.304 1.923,-0.912c0.49,-0.608 0.736,-1.41 0.736,-2.406l0,-0.169c0,-0.605 -0.113,-1.159 -0.337,-1.662c-0.225,-0.503 -0.54,-0.893 -0.945,-1.168c-0.405,-0.276 -0.869,-0.414 -1.392,-0.414c-0.781,0 -1.418,0.306 -1.911,0.919c-0.493,0.613 -0.74,1.415 -0.74,2.406l0,0.161Z" style="fill:#54657e;fill-rule:nonzero;"/><path d="M96.355,53.325l0,8.87c0,0.732 -0.176,1.291 -0.527,1.677c-0.352,0.386 -0.869,0.579 -1.553,0.579c-0.264,0 -0.52,-0.047 -0.769,-0.139l0.015,-0.726c0.215,0.064 0.434,0.096 0.659,0.096c0.869,0 1.304,-0.501 1.304,-1.502l0,-8.855l0.871,0Zm-0.432,-2.886c0.191,0 0.339,0.058 0.447,0.173c0.107,0.114 0.161,0.255 0.161,0.421c0,0.166 -0.054,0.305 -0.161,0.417c-0.108,0.112 -0.256,0.169 -0.447,0.169c-0.185,0 -0.331,-0.056 -0.436,-0.169c-0.105,-0.112 -0.157,-0.251 -0.157,-0.417c0,-0.166 0.052,-0.307 0.157,-0.421c0.105,-0.115 0.251,-0.173 0.436,-0.173Z" style="fill:#54657e;fill-rule:nonzero;"/><path d="M101.9,61.396c-0.674,0 -1.283,-0.166 -1.828,-0.498c-0.544,-0.332 -0.968,-0.794 -1.271,-1.388c-0.302,-0.593 -0.454,-1.258 -0.454,-1.995l0,-0.315c0,-0.762 0.148,-1.448 0.444,-2.058c0.295,-0.611 0.706,-1.09 1.234,-1.44c0.527,-0.349 1.098,-0.523 1.714,-0.523c0.961,0 1.724,0.328 2.288,0.985c0.564,0.657 0.846,1.554 0.846,2.691l0,0.491l-5.654,0l0,0.169c0,0.898 0.258,1.646 0.773,2.245c0.515,0.598 1.163,0.897 1.944,0.897c0.469,0 0.883,-0.086 1.242,-0.257c0.359,-0.171 0.685,-0.444 0.978,-0.82l0.549,0.418c-0.645,0.932 -1.58,1.398 -2.805,1.398Zm-0.161,-7.47c-0.66,0 -1.215,0.241 -1.667,0.725c-0.451,0.483 -0.726,1.133 -0.824,1.948l4.754,0l0,-0.095c-0.025,-0.762 -0.242,-1.382 -0.652,-1.86c-0.41,-0.479 -0.947,-0.718 -1.611,-0.718Z" style="fill:#54657e;fill-rule:nonzero;"/><path d="M109.51,60.657c0.61,0 1.121,-0.172 1.534,-0.517c0.413,-0.344 0.636,-0.789 0.67,-1.336l0.842,0c-0.024,0.483 -0.175,0.924 -0.454,1.322c-0.278,0.398 -0.648,0.709 -1.109,0.934c-0.462,0.224 -0.956,0.336 -1.483,0.336c-1.041,0 -1.865,-0.361 -2.472,-1.084c-0.608,-0.722 -0.912,-1.694 -0.912,-2.915l0,-0.263c0,-0.781 0.136,-1.472 0.41,-2.073c0.273,-0.601 0.665,-1.064 1.175,-1.392c0.511,-0.327 1.108,-0.49 1.791,-0.49c0.869,0 1.586,0.259 2.15,0.776c0.564,0.518 0.865,1.199 0.904,2.044l-0.842,0c-0.039,-0.621 -0.262,-1.121 -0.67,-1.502c-0.408,-0.381 -0.922,-0.571 -1.542,-0.571c-0.791,0 -1.405,0.285 -1.842,0.857c-0.437,0.571 -0.655,1.372 -0.655,2.402l0,0.256c0,1.011 0.218,1.8 0.655,2.366c0.437,0.567 1.054,0.85 1.85,0.85Z" style="fill:#54657e;fill-rule:nonzero;"/><path d="M115.669,51.296l0,2.029l1.641,0l0,0.718l-1.641,0l0,5.281c0,0.439 0.08,0.766 0.238,0.981c0.159,0.215 0.424,0.322 0.795,0.322c0.146,0 0.383,-0.024 0.71,-0.073l0.037,0.718c-0.23,0.083 -0.542,0.124 -0.938,0.124c-0.6,0 -1.037,-0.174 -1.311,-0.523c-0.273,-0.349 -0.41,-0.863 -0.41,-1.542l0,-5.288l-1.457,0l0,-0.718l1.457,0l0,-2.029l0.879,0Z" style="fill:#54657e;fill-rule:nonzero;"/><path d="M127.688,50.586l0.908,0l0,7.493c0,1.01 -0.291,1.816 -0.875,2.417c-0.583,0.6 -1.366,0.9 -2.347,0.9c-1.035,0 -1.831,-0.271 -2.388,-0.813c-0.557,-0.541 -0.835,-1.298 -0.835,-2.27l0.901,0c0,0.771 0.203,1.351 0.608,1.739c0.405,0.389 0.976,0.583 1.714,0.583c0.678,0 1.231,-0.225 1.659,-0.674c0.427,-0.449 0.645,-1.06 0.655,-1.831l0,-7.544Z" style="fill:#54657e;fill-rule:nonzero;"/><path d="M136.126,60.247c-0.528,0.766 -1.37,1.149 -2.527,1.149c-0.845,0 -1.487,-0.245 -1.926,-0.736c-0.44,-0.49 -0.664,-1.217 -0.674,-2.179l0,-5.156l0.871,0l0,5.047c0,1.508 0.611,2.263 1.831,2.263c1.27,0 2.073,-0.525 2.41,-1.575l0,-5.735l0.879,0l0,7.925l-0.85,0l-0.014,-1.003Z" style="fill:#54657e;fill-rule:nonzero;"/><path d="M145.64,57.368c0,1.236 -0.274,2.216 -0.82,2.941c-0.547,0.725 -1.28,1.087 -2.198,1.087c-1.084,0 -1.914,-0.38 -2.49,-1.142l0,4.043l-0.872,0l0,-10.972l0.813,0l0.044,1.121c0.572,-0.845 1.399,-1.267 2.483,-1.267c0.948,0 1.691,0.359 2.231,1.076c0.539,0.718 0.809,1.714 0.809,2.989l0,0.124Zm-0.879,-0.154c0,-1.01 -0.208,-1.809 -0.623,-2.395c-0.415,-0.586 -0.993,-0.879 -1.735,-0.879c-0.538,0 -0.999,0.13 -1.385,0.389c-0.385,0.258 -0.681,0.634 -0.886,1.128l0,3.801c0.21,0.454 0.51,0.801 0.901,1.04c0.391,0.239 0.852,0.359 1.384,0.359c0.738,0 1.312,-0.294 1.725,-0.883c0.413,-0.588 0.619,-1.441 0.619,-2.56Z" style="fill:#54657e;fill-rule:nonzero;"/><path d="M150.012,59.99l2.315,-6.665l0.945,0l-3.384,9.273l-0.176,0.41c-0.434,0.962 -1.106,1.443 -2.014,1.443c-0.21,0 -0.435,-0.034 -0.674,-0.103l-0.007,-0.725l0.454,0.044c0.43,0 0.778,-0.106 1.044,-0.319c0.266,-0.212 0.492,-0.577 0.677,-1.095l0.388,-1.069l-2.988,-7.859l0.959,0l2.461,6.665Z" style="fill:#54657e;fill-rule:nonzero;"/><path d="M155.989,51.296l0,2.029l1.641,0l0,0.718l-1.641,0l0,5.281c0,0.439 0.079,0.766 0.238,0.981c0.159,0.215 0.424,0.322 0.795,0.322c0.146,0 0.383,-0.024 0.71,-0.073l0.037,0.718c-0.23,0.083 -0.542,0.124 -0.938,0.124c-0.6,0 -1.037,-0.174 -1.311,-0.523c-0.273,-0.349 -0.41,-0.863 -0.41,-1.542l0,-5.288l-1.457,0l0,-0.718l1.457,0l0,-2.029l0.879,0Z" style="fill:#54657e;fill-rule:nonzero;"/><path d="M162.515,61.396c-0.674,0 -1.283,-0.166 -1.828,-0.498c-0.544,-0.332 -0.968,-0.794 -1.27,-1.388c-0.303,-0.593 -0.454,-1.258 -0.454,-1.995l0,-0.315c0,-0.762 0.147,-1.448 0.443,-2.058c0.295,-0.611 0.707,-1.09 1.234,-1.44c0.527,-0.349 1.099,-0.523 1.714,-0.523c0.962,0 1.725,0.328 2.289,0.985c0.564,0.657 0.846,1.554 0.846,2.691l0,0.491l-5.655,0l0,0.169c0,0.898 0.258,1.646 0.773,2.245c0.515,0.598 1.163,0.897 1.944,0.897c0.469,0 0.883,-0.086 1.242,-0.257c0.359,-0.171 0.685,-0.444 0.978,-0.82l0.549,0.418c-0.644,0.932 -1.58,1.398 -2.805,1.398Zm-0.161,-7.47c-0.659,0 -1.215,0.241 -1.667,0.725c-0.451,0.483 -0.726,1.133 -0.823,1.948l4.753,0l0,-0.095c-0.024,-0.762 -0.242,-1.382 -0.652,-1.86c-0.41,-0.479 -0.947,-0.718 -1.611,-0.718Z" style="fill:#54657e;fill-rule:nonzero;"/><path d="M170.857,54.072c-0.185,-0.034 -0.383,-0.051 -0.593,-0.051c-0.547,0 -1.01,0.153 -1.388,0.458c-0.378,0.305 -0.648,0.748 -0.809,1.329l0,5.442l-0.872,0l0,-7.925l0.857,0l0.015,1.26c0.464,-0.938 1.208,-1.406 2.234,-1.406c0.244,0 0.437,0.031 0.578,0.095l-0.022,0.798Z" style="fill:#54657e;fill-rule:nonzero;"/><path d="M171.26,60.723c0,-0.171 0.055,-0.317 0.165,-0.436c0.11,-0.12 0.262,-0.18 0.458,-0.18c0.195,0 0.349,0.06 0.461,0.18c0.112,0.119 0.168,0.265 0.168,0.436c0,0.171 -0.056,0.311 -0.168,0.421c-0.112,0.11 -0.266,0.165 -0.461,0.165c-0.196,0 -0.348,-0.055 -0.458,-0.165c-0.11,-0.11 -0.165,-0.25 -0.165,-0.421Z" style="fill:#54657e;fill-rule:nonzero;"/></g><path id="Security" d="M83.07,405.394l4.492,0l0,25.17c0,3.402 -0.867,6.063 -2.6,7.984c-1.733,1.92 -4.065,2.881 -6.995,2.881c-3.011,0 -5.354,-0.912 -7.031,-2.735c-1.676,-1.823 -2.515,-4.345 -2.515,-7.568l4.468,0c0,2.034 0.448,3.621 1.343,4.761c0.895,1.139 2.14,1.709 3.735,1.709c1.547,0 2.784,-0.619 3.711,-1.856c0.928,-1.237 1.392,-2.97 1.392,-5.2l0,-25.146Z" style="fill:#3d4d65;fill-rule:nonzero;"/><path d="M117.933,405.394l0,25.268c-0.032,3.369 -1.009,6.006 -2.93,7.91c-1.92,1.905 -4.597,2.857 -8.032,2.857c-3.515,0 -6.201,-0.932 -8.056,-2.796c-1.856,-1.863 -2.8,-4.52 -2.832,-7.971l0,-25.268l4.443,0l0,25.097c0,2.393 0.509,4.179 1.526,5.359c1.017,1.18 2.657,1.77 4.919,1.77c2.279,0 3.927,-0.59 4.944,-1.77c1.017,-1.18 1.526,-2.966 1.526,-5.359l0,-25.097l4.492,0Z" style="fill:#3d4d65;fill-rule:nonzero;"/><path d="M131.044,427.024l0,13.916l-4.468,0l0,-35.546l11.328,0c3.304,0 5.9,0.988 7.788,2.966c1.888,1.977 2.832,4.61 2.832,7.898c0,3.418 -0.899,6.05 -2.698,7.898c-1.798,1.847 -4.333,2.803 -7.605,2.868l-7.177,0Zm0,-3.833l6.86,0c1.986,0 3.507,-0.594 4.565,-1.782c1.058,-1.188 1.587,-2.889 1.587,-5.102c0,-2.133 -0.545,-3.842 -1.636,-5.127c-1.09,-1.286 -2.587,-1.929 -4.492,-1.929l-6.884,0l0,13.94Z" style="fill:#3d4d65;fill-rule:nonzero;"/><path d="M165.296,423.24l7.276,-17.846l5.054,0l-10.108,22.29l0,13.256l-4.468,0l0,-13.256l-10.107,-22.29l5.078,0l7.275,17.846Z" style="fill:#3d4d65;fill-rule:nonzero;"/><path d="M205.213,409.251l-9.35,0l0,31.689l-4.468,0l0,-31.689l-9.326,0l0,-3.857l23.144,0l0,3.857Z" style="fill:#3d4d65;fill-rule:nonzero;"/><path d="M229.261,424.51l-12.573,0l0,12.597l14.649,0l0,3.833l-19.117,0l0,-35.546l18.872,0l0,3.857l-14.404,0l0,11.426l12.573,0l0,3.833Z" style="fill:#3d4d65;fill-rule:nonzero;"/><path d="M249.549,426.561l-6.25,0l0,14.379l-4.492,0l0,-35.546l9.961,0c3.483,0 6.12,0.907 7.91,2.722c1.791,1.814 2.686,4.472 2.686,7.971c0,2.197 -0.484,4.114 -1.453,5.749c-0.968,1.636 -2.339,2.869 -4.114,3.699l6.885,15.112l0,0.293l-4.809,0l-6.324,-14.379Zm-6.25,-3.833l5.42,0c1.872,0 3.365,-0.603 4.48,-1.807c1.115,-1.205 1.673,-2.816 1.673,-4.834c0,-4.557 -2.067,-6.836 -6.202,-6.836l-5.371,0l0,13.477Z" style="fill:#3d4d65;fill-rule:nonzero;"/><path d="M295.594,424.51l-12.573,0l0,12.597l14.649,0l0,3.833l-19.117,0l0,-35.546l18.872,0l0,3.857l-14.404,0l0,11.426l12.573,0l0,3.833Z" style="fill:#3d4d65;fill-rule:nonzero;"/><path d="M328.358,440.94l-4.492,0l-14.234,-27.392l0,27.392l-4.492,0l0,-35.546l4.492,0l14.283,27.514l0,-27.514l4.443,0l0,35.546Z" style="fill:#3d4d65;fill-rule:nonzero;"/><path d="M354.872,431.663l-12.012,0l-2.759,9.277l-4.59,0l11.451,-35.546l3.833,0l11.474,35.546l-4.59,0l-2.807,-9.277Zm-10.84,-3.857l9.692,0l-4.858,-16.162l-4.834,16.162Z" style="fill:#3d4d65;fill-rule:nonzero;"/><path d="M368.861,440.94l0,-35.546l10.132,0c3.239,0 5.676,0.789 7.312,2.368c1.636,1.578 2.453,3.947 2.453,7.104c0,1.66 -0.415,3.125 -1.245,4.395c-0.83,1.269 -1.953,2.254 -3.369,2.954c1.628,0.488 2.918,1.489 3.87,3.003c0.952,1.513 1.428,3.336 1.428,5.469c0,3.19 -0.875,5.696 -2.625,7.519c-1.749,1.823 -4.244,2.734 -7.482,2.734l-10.474,0Zm4.468,-16.626l0,12.793l6.103,0c1.693,0 3.036,-0.557 4.029,-1.672c0.992,-1.115 1.489,-2.681 1.489,-4.7c0,-4.28 -1.807,-6.421 -5.42,-6.421l-6.201,0Zm0,-3.759l5.737,0c1.546,0 2.795,-0.521 3.748,-1.563c0.952,-1.041 1.428,-2.425 1.428,-4.15c0,-1.953 -0.432,-3.373 -1.294,-4.26c-0.863,-0.888 -2.181,-1.331 -3.955,-1.331l-5.664,0l0,11.304Z" style="fill:#3d4d65;fill-rule:nonzero;"/><path d="M402.381,437.107l13.941,0l0,3.833l-18.433,0l0,-35.546l4.492,0l0,31.713Z" style="fill:#3d4d65;fill-rule:nonzero;"/><path d="M440.443,424.51l-12.573,0l0,12.597l14.648,0l0,3.833l-19.116,0l0,-35.546l18.872,0l0,3.857l-14.404,0l0,11.426l12.573,0l0,3.833Z" style="fill:#3d4d65;fill-rule:nonzero;"/><path d="M449.989,440.94l0,-35.546l8.472,0c4.15,0 7.373,1.298 9.667,3.894c2.295,2.596 3.443,6.246 3.443,10.949l0,5.957c0,4.704 -1.164,8.338 -3.491,10.901c-2.328,2.564 -5.705,3.845 -10.132,3.845l-7.959,0Zm4.468,-31.689l0,27.856l3.588,0c3.142,0 5.437,-0.899 6.885,-2.697c1.449,-1.799 2.189,-4.464 2.222,-7.996l0,-6.299c0,-3.743 -0.72,-6.49 -2.161,-8.24c-1.44,-1.749 -3.617,-2.624 -6.53,-2.624l-4.004,0Z" style="fill:#3d4d65;fill-rule:nonzero;"/><rect id="Header" x="1.096" y="1.589" width="540" height="340" style="fill:#ffdab8;"/><clipPath id="_clip2"><rect x="1.096" y="1.589" width="540" height="340"/></clipPath><g clip-path="url(#_clip2)"></g></g><g><path id="Fill-9" d="M270.1,240.322c-43.222,0 -80.86,-15.539 -100.455,-38.497c14.829,41.157 54.204,70.582 100.455,70.582c46.25,0 85.627,-29.425 100.455,-70.582c-19.594,22.958 -57.232,38.497 -100.455,38.497" style="fill:#e46e2e;"/><path id="Fill-10" d="M270.1,90.902c43.223,0 80.861,15.54 100.455,38.497c-14.828,-41.157 -54.205,-70.582 -100.455,-70.582c-46.251,0 -85.626,29.425 -100.455,70.582c19.595,-22.957 57.233,-38.497 100.455,-38.497" style="fill:#e46e2e;"/><path id="Fill-11" d="M189.114,295.723c-9.267,0.397 -17.102,-6.794 -17.499,-16.061c-0.397,-9.267 6.794,-17.101 16.062,-17.499c9.267,-0.397 17.101,6.794 17.498,16.061c0.398,9.267 -6.793,17.103 -16.061,17.499Z" style="fill:#767474;"/><path id="Fill-12" d="M176.226,77.024c-5.792,0.248 -10.689,-4.246 -10.937,-10.039c-0.248,-5.792 4.246,-10.689 10.038,-10.937c5.793,-0.248 10.69,4.246 10.938,10.039c0.248,5.792 -4.246,10.689 -10.039,10.937Z" style="fill:#767474;"/><path id="Fill-8" d="M342.889,64.587c-8.994,0.385 -16.598,-6.594 -16.983,-15.588c-0.386,-8.994 6.594,-16.599 15.588,-16.984c8.994,-0.385 16.598,6.594 16.983,15.588c0.386,8.994 -6.594,16.599 -15.588,16.984Z" style="fill:#767474;"/><g id="Group-Copy"><path id="Fill-1" d="M147.966,179.782c0,9.673 -0.756,12.842 -2.773,15.176c-1.764,1.918 -4.705,2.835 -8.066,3.086l0.756,5.754c3.949,0 9.327,-1.335 12.603,-4.587c3.613,-3.669 4.873,-8.755 4.873,-16.594l0,-36.608l-7.393,0l0,33.773" style="fill:#313940;"/><path id="Fill-2" d="M203.168,175.363c0,4.168 0.084,7.838 0.336,11.007l-6.554,0l-0.42,-6.588l-0.168,0c-1.933,3.252 -6.218,7.504 -13.443,7.504c-6.386,0 -14.032,-3.502 -14.032,-17.677l0,-23.6l7.394,0l0,22.348c0,7.672 2.353,12.843 9.074,12.843c4.957,0 8.402,-3.419 9.747,-6.672c0.42,-1.084 0.672,-2.418 0.672,-3.753l0,-24.766l7.394,0l0,29.354" style="fill:#313940;"/><path id="Fill-3" d="M217.117,159.185c0,-5.17 -0.168,-9.34 -0.336,-13.176l6.637,0l0.336,6.921l0.168,0c3.025,-4.919 7.814,-7.838 14.452,-7.838c9.831,0 17.224,8.255 17.224,20.514c0,14.509 -8.906,21.68 -18.485,21.68c-5.377,0 -10.082,-2.334 -12.519,-6.337l-0.167,0l0,21.931l-7.31,0l0,-43.695Zm7.31,10.757c0,1.084 0.167,2.085 0.336,3.002c1.343,5.087 5.797,8.589 11.09,8.589c7.814,0 12.352,-6.337 12.352,-15.594c0,-8.088 -4.286,-15.01 -12.099,-15.01c-5.042,0 -9.747,3.586 -11.176,9.089c-0.251,0.918 -0.503,2.002 -0.503,3.003l0,6.921Z" style="fill:#313940;"/><path id="Fill-4" d="M268.706,146.009l8.907,23.85c0.924,2.669 1.932,5.836 2.605,8.255l0.167,0c0.757,-2.419 1.597,-5.504 2.605,-8.422l8.066,-23.683l7.814,0l-11.09,28.77c-5.294,13.842 -8.907,20.931 -13.948,25.266c-3.613,3.169 -7.226,4.42 -9.074,4.753l-1.849,-6.17c1.849,-0.584 4.285,-1.752 6.47,-3.586c2.016,-1.585 4.537,-4.42 6.217,-8.172c0.336,-0.75 0.588,-1.334 0.588,-1.751c0,-0.418 -0.167,-1 -0.504,-1.918l-15.039,-37.192l8.065,0" style="fill:#313940;"/><path id="Fill-5" d="M318.315,134.418l0,11.591l10.587,0l0,5.588l-10.587,0l0,21.764c0,5.003 1.429,7.839 5.546,7.839c1.932,0 3.36,-0.251 4.285,-0.501l0.336,5.504c-1.429,0.584 -3.697,1 -6.554,1c-3.445,0 -6.218,-1.083 -7.982,-3.084c-2.1,-2.169 -2.857,-5.755 -2.857,-10.508l0,-22.014l-6.301,0l0,-5.588l6.301,0l0,-9.673l7.226,-1.918" style="fill:#313940;"/><path id="Fill-6" d="M342.514,167.523c0.167,9.924 6.554,14.01 13.947,14.01c5.293,0 8.486,-0.917 11.259,-2.085l1.26,5.253c-2.604,1.168 -7.057,2.502 -13.527,2.502c-12.519,0 -19.997,-8.172 -19.997,-20.346c0,-12.175 7.225,-21.765 19.073,-21.765c13.275,0 16.804,11.591 16.804,19.012c0,1.502 -0.168,2.669 -0.252,3.419l-28.567,0Zm21.677,-5.253c0.084,-4.67 -1.932,-11.925 -10.25,-11.925c-7.478,0 -10.756,6.838 -11.343,11.925l21.593,0Z" style="fill:#313940;"/><path id="Fill-7" d="M382.173,158.601c0,-4.753 -0.084,-8.84 -0.337,-12.592l6.47,0l0.253,7.922l0.336,0c1.848,-5.42 6.301,-8.839 11.258,-8.839c0.84,0 1.429,0.083 2.101,0.251l0,6.921c-0.756,-0.167 -1.513,-0.25 -2.521,-0.25c-5.21,0 -8.906,3.919 -9.914,9.422c-0.168,1.001 -0.337,2.169 -0.337,3.419l0,21.515l-7.309,0l0,-27.769" style="fill:#313940;"/></g></g></g></svg>