<?xml version="1.0" encoding="UTF-8" standalone="no"?><!DOCTYPE svg PUBLIC "-//W3C//DTD SVG 1.1//EN" "http://www.w3.org/Graphics/SVG/1.1/DTD/svg11.dtd"><svg width="100%" height="100%" viewBox="0 0 542 742" version="1.1" xmlns="http://www.w3.org/2000/svg" xmlns:xlink="http://www.w3.org/1999/xlink" xml:space="preserve" style="fill-rule:evenodd;clip-rule:evenodd;stroke-linejoin:round;stroke-miterlimit:1.41421;"><path id="Feature-.23.7" d="M541.096,11.589c0,-5.519 -4.48,-10 -10,-10l-520,0c-5.519,0 -10,4.481 -10,10l0,720c0,5.519 4.481,10 10,10l520,0c5.52,0 10,-4.481 10,-10l0,-720Z" style="fill:#f2f2f2;"/><clipPath id="_clip1"><path d="M541.096,11.589c0,-5.519 -4.48,-10 -10,-10l-520,0c-5.519,0 -10,4.481 -10,10l0,720c0,5.519 4.481,10 10,10l520,0c5.52,0 10,-4.481 10,-10l0,-720Z"/></clipPath><g clip-path="url(#_clip1)"><g id="Filler-Text" transform="matrix(2,0,0,2,60.8663,490.081)"><text x="19.422px" y="11.25px" style="font-family:'Roboto-Light', 'Roboto';font-weight:300;font-size:15px;fill:#54657e;">W<tspan x="32.642px " y="11.25px ">e</tspan> ensur<tspan x="80.769px " y="11.25px ">e</tspan> that our data is</text><text x="6.165px" y="36.25px" style="font-family:'Roboto-Light', 'Roboto';font-weight:300;font-size:15px;fill:#54657e;">secur<tspan x="42.383px " y="36.25px ">e</tspan> in the cloud so y<tspan x="159.849px " y="36.25px ">o</tspan>u can</text><text x="20.008px" y="61.25px" style="font-family:'Roboto-Light', 'Roboto';font-weight:300;font-size:15px;fill:#54657e;">focus on the just the data.</text></g><text id="Security" x="66.859px" y="440.94px" style="font-family:'RobotoCondensed-Regular', 'Roboto Condensed';font-size:50px;fill:#3d4d65;">S<tspan x="94.52px 121.107px 149.403px 163.661px 195.448px 225.282px 252.064px 264.393px 292.054px 318.641px 348.744px 378.578px 406.874px 420.424px 448.597px " y="440.94px 440.94px 440.94px 440.94px 440.94px 440.94px 440.94px 440.94px 440.94px 440.94px 440.94px 440.94px 440.94px 440.94px 440.94px ">ERIOUS SECURITY</tspan></text><rect id="Header" x="1.096" y="1.589" width="540" height="340" style="fill:url(#_Linear2);"/><clipPath id="_clip3"><rect x="1.096" y="1.589" width="540" height="340"/></clipPath><g clip-path="url(#_clip3)"><g id="_1-0-1-1-1-0-1-0-0-1-0-1-1-0-1-0-1-0-0-0-0-1-0-1-1-1-0-0-1-0-1-1" transform="matrix(2,0,0,2,-26.6981,-30.4111)"><text x="4.748px" y="9px" style="font-family:'Roboto-Regular', 'Roboto';font-size:12px;fill:#fff;fill-opacity:0.301961;">1 0 1 1 1 0 1 0 0 1 0 1 1 0 1 0 1 0 0 0 0 1 0 1 1 1 0 0 1 0</text><text x="4.748px" y="29px" style="font-family:'Roboto-Regular', 'Roboto';font-size:12px;fill:#fff;fill-opacity:0.301961;">1 1 1 0 1 0 0 1 0 1 1 1 0 1 0 0 1 0 1 1 0 1 0 1 0 0 0 0 1 0</text><text x="4.748px" y="49px" style="font-family:'Roboto-Regular', 'Roboto';font-size:12px;fill:#fff;fill-opacity:0.301961;">1 1 1 0 0 1 0 1 1 1 0 1 0 0 1 0 1 1 1 0 1 0 0 1 0 1 1 0 1 0</text><text x="4.748px" y="69px" style="font-family:'Roboto-Regular', 'Roboto';font-size:12px;fill:#fff;fill-opacity:0.301961;">1 0 0 0 0 1 0 1 1 1 0 0 1 0 1 1 1 0 1 0 0 1 0 1 1 1 0 1 0 0</text><text x="4.748px" y="89px" style="font-family:'Roboto-Regular', 'Roboto';font-size:12px;fill:#fff;fill-opacity:0.301961;">1 0 1 1 0 1 0 1 0 0 0 0 1 0 1 1 1 0 0 1 0 1 1 1 0 1 0 0 1 0</text><text x="4.748px" y="109px" style="font-family:'Roboto-Regular', 'Roboto';font-size:12px;fill:#fff;fill-opacity:0.301961;">1 1 1 0 1 0 0 1 0 1 1 0 1 0 1 0 0 0 0 1 0 1 1 1 0 0 1 0 1 1</text><text x="4.748px" y="129px" style="font-family:'Roboto-Regular', 'Roboto';font-size:12px;fill:#fff;fill-opacity:0.301961;">1 0 1 0 0 1 0 1 1 1 0 1 0 0 1 0 1 1 0 1 0 1 0 0 0 0 1 0 1 1</text><text x="4.748px" y="149px" style="font-family:'Roboto-Regular', 'Roboto';font-size:12px;fill:#fff;fill-opacity:0.301961;">1 0 0 1 0 1 1 1 0 1 0 0 1 0 1 1 1 0 1 0 0 1 0 1 1 0 1 0 1 0</text><text x="4.748px" y="169px" style="font-family:'Roboto-Regular', 'Roboto';font-size:12px;fill:#fff;fill-opacity:0.301961;">0 0 0 1 0 1 1 1 0 0 1 0 1 1 1 0 1 0 0 1 0 1 1 1 0 1 0 0 1 0</text><text x="4.748px" y="189px" style="font-family:'Roboto-Regular', 'Roboto';font-size:12px;fill:#fff;fill-opacity:0.301961;">1 1 0 1 0 1 0 0 0 0 1 0 1 1 1 0 0 1 0 1 1 1 0 1 0 0 1 0 1 1</text><text x="4.748px" y="209px" style="font-family:'Roboto-Regular', 'Roboto';font-size:12px;fill:#fff;fill-opacity:0.301961;">1 0 1 0 0 1 0 1 1 0 1 0 1 0 0 0 0 1 0 1 1 1 0 0 1 0 1 1 1 0</text><text x="135.819px" y="229px" style="font-family:'Roboto-Regular', 'Roboto';font-size:12px;fill:#fff;fill-opacity:0.301961;">1 0 0</text></g><path id="Lock-Icon" d="M303.097,229.588l-68.001,0c-3.313,0 -6,-2.685 -6,-5.998l0,-48.001c0,-3.313 2.687,-5.999 6,-5.999l10.001,0l0,-11.999c0,-13.256 10.745,-24.002 23.999,-24.002c13.256,0 24.001,10.746 24.001,24.002l0,11.999l10,0c3.313,0 5.999,2.686 5.999,5.999l0,48.001c0,3.313 -2.686,5.998 -5.999,5.998Zm-40.001,-15.998l12,0l-3.137,-12.551c3,-1.154 5.137,-4.043 5.137,-7.447c0,-4.421 -3.581,-8.001 -8,-8.001c-4.418,0 -7.999,3.58 -7.999,8.001c0,3.404 2.138,6.293 5.137,7.447l-3.138,12.551Zm22.001,-55.999c0,-8.837 -7.164,-16.002 -16.001,-16.002c-8.836,0 -15.999,7.165 -15.999,16.002l0,11.999l32,0l0,-11.999Z" style="fill:#fff;"/></g></g><defs><linearGradient id="_Linear2" x1="0" y1="0" x2="1" y2="0" gradientUnits="userSpaceOnUse" gradientTransform="matrix(540,0,0,540,1.09637,171.589)"><stop offset="0%" style="stop-color:#0081d5;stop-opacity:1"/><stop offset="100%" style="stop-color:#a133d5;stop-opacity:1"/></linearGradient></defs></svg>