<?xml version="1.0" encoding="UTF-8" standalone="no"?><!DOCTYPE svg PUBLIC "-//W3C//DTD SVG 1.1//EN" "http://www.w3.org/Graphics/SVG/1.1/DTD/svg11.dtd"><svg width="100%" height="100%" viewBox="0 0 542 202" version="1.1" xmlns="http://www.w3.org/2000/svg" xmlns:xlink="http://www.w3.org/1999/xlink" xml:space="preserve" style="fill-rule:evenodd;clip-rule:evenodd;stroke-linejoin:round;stroke-miterlimit:1.41421;"><path id="Stats-Mini-.23.4" d="M540.222,10.204c0,-5.52 -4.481,-10 -10,-10l-520,0c-5.519,0 -10,4.48 -10,10l0,180c0,5.519 4.481,10 10,10l520,0c5.519,0 10,-4.481 10,-10l0,-180Z" style="fill:#f2f2f2;"/><clipPath id="_clip1"><path d="M540.222,10.204c0,-5.52 -4.481,-10 -10,-10l-520,0c-5.519,0 -10,4.48 -10,10l0,180c0,5.519 4.481,10 10,10l520,0c5.519,0 10,-4.481 10,-10l0,-180Z"/></clipPath><g clip-path="url(#_clip1)"><g id="Graph"><path id="Weekend" d="M463.222,108.203c1.657,0 3,1.344 3,3.001l0,25.999c0,1.657 -1.343,3 -3,3c-1.657,0 -3,-1.343 -3,-3l0,-25.999c0,-1.657 1.343,-3.001 3,-3.001Zm14,-9.999c1.657,0 3,1.343 3,2.999l0,36c0,1.657 -1.343,3 -3,3c-1.657,0 -3,-1.343 -3,-3l0,-36c0,-1.656 1.343,-2.999 3,-2.999Z" style="fill:#a939b9;"/><path id="Work-Days" d="M393.222,92.203c1.657,0 3,1.344 3,3l0,42c0,1.657 -1.343,3 -3,3c-1.657,0 -3,-1.343 -3,-3l0,-42c0,-1.656 1.343,-3 3,-3Zm14,-22c1.657,0 3,1.343 3,3l0,64c0,1.657 -1.343,3 -3,3c-1.657,0 -3,-1.343 -3,-3l0,-64c0,-1.657 1.343,-3 3,-3Zm14,14.001c1.657,0 3,1.342 3,3l0,49.999c0,1.657 -1.343,3 -3,3c-1.657,0 -3,-1.343 -3,-3l0,-49.999c0,-1.658 1.343,-3 3,-3Zm14,-24c1.657,0 3,1.343 3,3l0,73.999c0,1.657 -1.343,3 -3,3c-1.657,0 -3,-1.343 -3,-3l0,-73.999c0,-1.657 1.343,-3 3,-3Zm14,31.999c1.657,0 3,1.344 3,3l0,42c0,1.657 -1.343,3 -3,3c-1.657,0 -3,-1.343 -3,-3l0,-42c0,-1.656 1.343,-3 3,-3Z" style="fill:#03bd5b;"/></g><text id="Sessions-.28.Last-Week.29." x="60.386px" y="137.555px" style="font-family:'Roboto-Regular', 'Roboto';font-size:24px;fill:#54657e;">S<tspan x="75.468px 89.953px 105.035px 120.117px 127.488px 144.832px 162.785px 177.445px 183.386px 192.011px 205.992px 222.492px 237.574px 251.847px 258.21px 280.347px 294.832px 309.316px 324.785px " y="137.555px 137.555px 137.555px 137.555px 137.555px 137.555px 137.555px 137.555px 137.555px 137.555px 137.555px 137.555px 137.555px 137.555px 137.555px 137.555px 137.555px 137.555px 137.555px ">ESSIONS (LAST WEEK)</tspan></text><text id="_2985" x="57.964px" y="97.555px" style="font-family:'Roboto-Regular', 'Roboto';font-size:50px;fill:#3d4d65;">256</text></g></svg>