<?xml version="1.0" encoding="UTF-8" standalone="no"?><!DOCTYPE svg PUBLIC "-//W3C//DTD SVG 1.1//EN" "http://www.w3.org/Graphics/SVG/1.1/DTD/svg11.dtd"><svg width="100%" height="100%" viewBox="0 0 542 442" version="1.1" xmlns="http://www.w3.org/2000/svg" xmlns:xlink="http://www.w3.org/1999/xlink" xml:space="preserve" style="fill-rule:evenodd;clip-rule:evenodd;stroke-linejoin:round;stroke-miterlimit:1.41421;"><path id="Stats-.23.1" d="M540.222,10.204c0,-5.52 -4.481,-10 -10,-10l-520,0c-5.519,0 -10,4.48 -10,10l0,420c0,5.519 4.481,10 10,10l520,0c5.519,0 10,-4.481 10,-10l0,-420Z" style="fill:#f2f2f2;"/><clipPath id="_clip1"><path d="M540.222,10.204c0,-5.52 -4.481,-10 -10,-10l-520,0c-5.519,0 -10,4.48 -10,10l0,420c0,5.519 4.481,10 10,10l520,0c5.519,0 10,-4.481 10,-10l0,-420Z"/></clipPath><g clip-path="url(#_clip1)"><text id="_50.25.-of-10GB-used" x="79.44px" y="379.555px" style="font-family:'Roboto-Light', 'Roboto';font-weight:300;font-size:28px;fill:#54657e;">5 of 10 Envir<tspan x="231.567px " y="379.555px ">o</tspan>nments Deplo<tspan x="417.34px 430.465px " y="379.555px 379.555px ">ye</tspan>d</text><g id="Scale"><path id="Base" d="M200.222,280.204l-60,0c0,-71.662 57.985,-129.781 129.98,-130l0.04,0l13.272,0.671c61.459,6.249 110.251,55.287 116.118,116.858l0.59,12.471l-60,0c0,-38.402 -30.923,-69.582 -69.98,-70l-0.04,0c-38.926,0.417 -69.773,31.39 -69.98,70Z" style="fill:#ebeff3;"/><clipPath id="_clip2"><path id="Base1" d="M200.222,280.204l-60,0c0,-71.662 57.985,-129.781 129.98,-130l0.04,0l13.272,0.671c61.459,6.249 110.251,55.287 116.118,116.858l0.59,12.471l-60,0c0,-38.402 -30.923,-69.582 -69.98,-70l-0.04,0c-38.926,0.417 -69.773,31.39 -69.98,70Z"/></clipPath><g clip-path="url(#_clip2)"><rect id="Filled" x="140.222" y="150.204" width="130" height="130" style="fill:url(#_Linear3);"/><path id="Dots" d="M172.698,253.804c0.429,-1.6 2.074,-2.55 3.674,-2.121c1.6,0.428 2.55,2.074 2.121,3.674c-0.429,1.6 -2.074,2.55 -3.674,2.121c-1.6,-0.429 -2.55,-2.074 -2.121,-3.674Zm197.049,0c0.429,1.6 -0.521,3.245 -2.122,3.674c-1.6,0.429 -3.245,-0.521 -3.674,-2.121c-0.429,-1.6 0.521,-3.246 2.121,-3.674c1.601,-0.429 3.246,0.521 3.675,2.121Zm-186.859,-24.601c0.828,-1.434 2.663,-1.926 4.098,-1.098c1.434,0.829 1.926,2.664 1.098,4.099c-0.829,1.435 -2.663,1.926 -4.098,1.098c-1.435,-0.829 -1.927,-2.663 -1.098,-4.099Zm176.669,0c0.828,1.436 0.337,3.27 -1.098,4.099c-1.435,0.828 -3.27,0.337 -4.098,-1.098c-0.829,-1.435 -0.337,-3.27 1.098,-4.099c1.435,-0.828 3.269,-0.336 4.098,1.098Zm-160.46,-21.124c1.172,-1.172 3.071,-1.172 4.243,0c1.171,1.171 1.171,3.071 0,4.242c-1.172,1.172 -3.071,1.172 -4.243,0c-1.171,-1.171 -1.171,-3.071 0,-4.242Zm144.25,0c1.172,1.171 1.172,3.071 0,4.242c-1.171,1.172 -3.071,1.172 -4.242,0c-1.172,-1.171 -1.172,-3.071 0,-4.242c1.171,-1.172 3.071,-1.172 4.242,0Zm-123.125,-16.21c1.435,-0.828 3.27,-0.337 4.098,1.098c0.829,1.435 0.337,3.27 -1.098,4.098c-1.435,0.829 -3.269,0.337 -4.098,-1.098c-0.828,-1.435 -0.337,-3.269 1.098,-4.098Zm102,0c1.435,0.829 1.927,2.663 1.098,4.098c-0.828,1.435 -2.663,1.927 -4.098,1.098c-1.435,-0.828 -1.926,-2.663 -1.098,-4.098c0.829,-1.435 2.663,-1.926 4.098,-1.098Zm-24.6,-10.19c1.6,0.429 2.55,2.074 2.121,3.675c-0.429,1.6 -2.074,2.55 -3.674,2.121c-1.601,-0.429 -2.55,-2.074 -2.122,-3.674c0.429,-1.601 2.074,-2.55 3.675,-2.122Zm-52.799,0c1.6,-0.428 3.245,0.521 3.674,2.122c0.429,1.6 -0.521,3.245 -2.121,3.674c-1.601,0.429 -3.246,-0.521 -3.675,-2.121c-0.428,-1.601 0.521,-3.246 2.122,-3.675Zm26.399,-3.475c1.656,0 3,1.344 3,3c0,1.655 -1.344,3 -3,3c-1.656,0 -3,-1.345 -3,-3c0,-1.656 1.344,-3 3,-3Z" style="fill:#fff;"/></g><path id="Pointer" d="M270.222,230.204c0,0 16,41.163 16,50c0,8.836 -7.163,16 -16,16c-8.836,0 -16,-7.164 -16,-16c0,-8.837 16,-50 16,-50Zm0,44c3.312,0 6,2.688 6,6c0,3.311 -2.688,6 -6,6c-3.311,0 -6,-2.689 -6,-6c0,-3.312 2.689,-6 6,-6Z" style="fill:#8393a7;"/></g><path id="Arrow-Right-Icon" d="M466.739,61.161l9.241,9.034l-9.241,9.034c-0.693,0.677 -0.693,1.775 0,2.452c0.693,0.678 1.816,0.678 2.509,0l10.458,-10.223c0.356,-0.348 0.526,-0.807 0.516,-1.263c0.01,-0.456 -0.16,-0.914 -0.516,-1.262l-10.458,-10.224c-0.693,-0.677 -1.816,-0.677 -2.509,0c-0.693,0.677 -0.693,1.776 0,2.452Z" style="fill:#8393a7;"/><text id="February-2015" x="151.752px" y="79.555px" style="font-family:'Roboto-Regular', 'Roboto';font-size:30px;fill:#3d4d65;">C<tspan x="172.334px 192.841px 212.368px 231.894px 250px 272.016px 289.858px 297.812px 318.32px 337.172px 357.636px 379.126px " y="79.555px 79.555px 79.555px 79.555px 79.555px 79.555px 79.555px 79.555px 79.555px 79.555px 79.555px 79.555px ">URRENT USAGE</tspan></text><path id="Arrow-Left-Icon" d="M73.705,61.161l-9.24,9.034l9.24,9.034c0.693,0.677 0.693,1.775 0,2.452c-0.692,0.678 -1.816,0.678 -2.508,0l-10.459,-10.223c-0.355,-0.348 -0.525,-0.807 -0.516,-1.263c-0.009,-0.456 0.161,-0.914 0.516,-1.262l10.459,-10.224c0.692,-0.677 1.816,-0.677 2.508,0c0.693,0.677 0.693,1.776 0,2.452Z" style="fill:#8393a7;"/></g><defs><linearGradient id="_Linear3" x1="0" y1="0" x2="1" y2="0" gradientUnits="userSpaceOnUse" gradientTransform="matrix(7.96019e-15,-130,130,7.96019e-15,205.222,280.204)"><stop offset="0%" style="stop-color:#0081d5;stop-opacity:1"/><stop offset="100%" style="stop-color:#a133d5;stop-opacity:1"/></linearGradient></defs></svg>