<?xml version="1.0" encoding="UTF-8" standalone="no"?><!DOCTYPE svg PUBLIC "-//W3C//DTD SVG 1.1//EN" "http://www.w3.org/Graphics/SVG/1.1/DTD/svg11.dtd"><svg width="100%" height="100%" viewBox="0 0 542 442" version="1.1" xmlns="http://www.w3.org/2000/svg" xmlns:xlink="http://www.w3.org/1999/xlink" xml:space="preserve" style="fill-rule:evenodd;clip-rule:evenodd;stroke-linejoin:round;stroke-miterlimit:1.41421;"><path id="Stats-.23.3" d="M540.667,10.204c0,-5.52 -4.481,-10 -10,-10l-520,0c-5.52,0 -10,4.48 -10,10l0,420c0,5.519 4.48,10 10,10l520,0c5.519,0 10,-4.481 10,-10l0,-420Z" style="fill:#f2f2f2;"/><clipPath id="_clip1"><path d="M540.667,10.204c0,-5.52 -4.481,-10 -10,-10l-520,0c-5.52,0 -10,4.48 -10,10l0,420c0,5.519 4.48,10 10,10l520,0c5.519,0 10,-4.481 10,-10l0,-420Z"/></clipPath><g clip-path="url(#_clip1)"><g id="_3"><g id="Progress-Bar"><g id="Base"><path d="M480.667,375.204c0,-2.76 -2.241,-5 -5,-5l-410,0c-2.76,0 -5,2.24 -5,5c0,2.759 2.24,5 5,5l410,0c2.759,0 5,-2.241 5,-5Z" style="fill:#eceff4;"/><path d="M475.796,370.205l0.128,0.005l0.127,0.008l0.127,0.011l0.125,0.015l0.125,0.017l0.123,0.021l0.123,0.023l0.121,0.027l0.121,0.029l0.119,0.032l0.118,0.036l0.117,0.038l0.115,0.04l0.114,0.044l0.113,0.046l0.112,0.049l0.11,0.051l0.108,0.054l0.107,0.056l0.106,0.059l0.103,0.062l0.103,0.064l0.1,0.066l0.099,0.069l0.097,0.07l0.096,0.074l0.093,0.075l0.092,0.078l0.09,0.079l0.088,0.082l0.085,0.084l0.084,0.086l0.082,0.087l0.08,0.09l0.077,0.092l0.076,0.093l0.073,0.096l0.071,0.097l0.068,0.099l0.066,0.1l0.064,0.103l0.062,0.104l0.059,0.105l0.056,0.107l0.054,0.109l0.052,0.11l0.048,0.111l0.047,0.113l0.043,0.114l0.041,0.116l0.038,0.116l0.035,0.118l0.032,0.12l0.03,0.12l0.026,0.121l0.023,0.123l0.021,0.124l0.017,0.124l0.015,0.126l0.011,0.126l0.008,0.127l0.005,0.129l0.002,0.129l-0.002,0.129l-0.005,0.128l-0.008,0.127l-0.011,0.127l-0.015,0.125l-0.017,0.125l-0.021,0.123l-0.023,0.123l-0.026,0.121l-0.03,0.121l-0.032,0.119l-0.035,0.118l-0.038,0.117l-0.041,0.115l-0.043,0.114l-0.047,0.113l-0.048,0.112l-0.052,0.11l-0.054,0.108l-0.056,0.107l-0.059,0.106l-0.062,0.103l-0.064,0.103l-0.066,0.1l-0.068,0.099l-0.071,0.097l-0.073,0.096l-0.076,0.093l-0.077,0.092l-0.08,0.09l-0.082,0.088l-0.084,0.085l-0.085,0.084l-0.088,0.082l-0.09,0.08l-0.092,0.077l-0.093,0.076l-0.096,0.073l-0.097,0.071l-0.099,0.068l-0.1,0.066l-0.103,0.064l-0.103,0.062l-0.106,0.059l-0.107,0.056l-0.108,0.054l-0.11,0.052l-0.112,0.048l-0.113,0.047l-0.114,0.043l-0.115,0.041l-0.117,0.038l-0.118,0.035l-0.119,0.032l-0.121,0.03l-0.121,0.026l-0.123,0.023l-0.123,0.021l-0.125,0.017l-0.125,0.015l-0.127,0.011l-0.127,0.008l-0.128,0.005l-0.129,0.002l-410,0l-0.129,-0.002l-0.128,-0.005l-0.128,-0.008l-0.126,-0.011l-0.126,-0.015l-0.124,-0.017l-0.124,-0.021l-0.123,-0.023l-0.121,-0.026l-0.12,-0.03l-0.12,-0.032l-0.118,-0.035l-0.116,-0.038l-0.116,-0.041l-0.114,-0.043l-0.113,-0.047l-0.111,-0.048l-0.11,-0.052l-0.109,-0.054l-0.107,-0.056l-0.105,-0.059l-0.104,-0.062l-0.102,-0.064l-0.101,-0.066l-0.099,-0.068l-0.097,-0.071l-0.096,-0.073l-0.093,-0.076l-0.092,-0.077l-0.09,-0.08l-0.087,-0.082l-0.086,-0.084l-0.084,-0.085l-0.082,-0.088l-0.079,-0.09l-0.078,-0.092l-0.075,-0.093l-0.073,-0.096l-0.071,-0.097l-0.069,-0.099l-0.066,-0.1l-0.064,-0.103l-0.062,-0.103l-0.059,-0.106l-0.056,-0.107l-0.054,-0.108l-0.051,-0.11l-0.049,-0.112l-0.046,-0.113l-0.044,-0.114l-0.04,-0.115l-0.038,-0.117l-0.036,-0.118l-0.032,-0.119l-0.029,-0.121l-0.027,-0.121l-0.023,-0.123l-0.021,-0.123l-0.017,-0.125l-0.015,-0.125l-0.011,-0.127l-0.008,-0.127l-0.005,-0.128l-0.001,-0.129l0.001,-0.129l0.005,-0.129l0.008,-0.127l0.011,-0.126l0.015,-0.126l0.017,-0.124l0.021,-0.124l0.023,-0.123l0.027,-0.121l0.029,-0.12l0.032,-0.12l0.036,-0.118l0.038,-0.116l0.04,-0.116l0.044,-0.114l0.046,-0.113l0.049,-0.111l0.051,-0.11l0.054,-0.109l0.056,-0.107l0.059,-0.105l0.062,-0.104l0.064,-0.103l0.066,-0.1l0.069,-0.099l0.071,-0.097l0.073,-0.096l0.075,-0.093l0.078,-0.092l0.079,-0.09l0.082,-0.087l0.084,-0.086l0.086,-0.084l0.087,-0.082l0.09,-0.079l0.092,-0.078l0.093,-0.075l0.096,-0.074l0.097,-0.07l0.099,-0.069l0.101,-0.066l0.102,-0.064l0.104,-0.062l0.105,-0.059l0.107,-0.056l0.109,-0.054l0.11,-0.051l0.111,-0.049l0.113,-0.046l0.114,-0.044l0.116,-0.04l0.116,-0.038l0.118,-0.036l0.12,-0.032l0.12,-0.029l0.121,-0.027l0.123,-0.023l0.124,-0.021l0.124,-0.017l0.126,-0.015l0.126,-0.011l0.128,-0.008l0.128,-0.005l0.129,-0.001l410,0l0.129,0.001Zm-410.119,1.999l-0.088,0.001l-0.077,0.003l-0.08,0.005l-0.074,0.006l-0.073,0.009l-0.076,0.01l-0.075,0.013l-0.074,0.014l-0.072,0.016l-0.071,0.017l-0.07,0.019l-0.069,0.021l-0.072,0.023l-0.071,0.025l-0.069,0.026l-0.068,0.028l-0.062,0.027l-0.066,0.031l-0.068,0.034l-0.063,0.033l-0.061,0.034l-0.064,0.038l-0.063,0.039l-0.061,0.04l-0.059,0.041l-0.055,0.04l-0.057,0.044l-0.059,0.048l-0.057,0.048l-0.052,0.046l-0.051,0.048l-0.056,0.054l-0.05,0.052l-0.047,0.05l-0.047,0.053l-0.049,0.058l-0.044,0.055l-0.044,0.057l-0.045,0.061l-0.04,0.058l-0.038,0.058l-0.04,0.064l-0.037,0.063l-0.035,0.062l-0.034,0.065l-0.032,0.065l-0.031,0.065l-0.03,0.068l-0.027,0.068l-0.026,0.066l-0.024,0.069l-0.023,0.069l-0.02,0.07l-0.02,0.073l-0.018,0.072l-0.015,0.071l-0.014,0.074l-0.013,0.074l-0.01,0.075l-0.009,0.075l-0.006,0.075l-0.005,0.078l-0.003,0.077l-0.001,0.079l0.001,0.078l0.003,0.077l0.005,0.078l0.006,0.076l0.009,0.075l0.01,0.074l0.013,0.074l0.014,0.074l0.015,0.072l0.018,0.072l0.02,0.072l0.02,0.07l0.023,0.069l0.024,0.069l0.026,0.067l0.027,0.067l0.03,0.069l0.031,0.065l0.032,0.064l0.034,0.065l0.036,0.065l0.036,0.061l0.038,0.061l0.04,0.06l0.04,0.058l0.045,0.062l0.044,0.056l0.044,0.056l0.049,0.057l0.047,0.054l0.047,0.05l0.05,0.051l0.056,0.054l0.051,0.048l0.052,0.046l0.057,0.049l0.059,0.047l0.057,0.044l0.055,0.04l0.059,0.041l0.061,0.04l0.063,0.039l0.064,0.038l0.061,0.034l0.063,0.033l0.068,0.034l0.066,0.031l0.062,0.027l0.068,0.028l0.069,0.026l0.071,0.025l0.072,0.024l0.069,0.02l0.07,0.019l0.071,0.018l0.072,0.015l0.074,0.015l0.075,0.012l0.076,0.011l0.073,0.008l0.074,0.007l0.08,0.005l0.077,0.003l0.088,0.001l409.979,0l0.088,-0.001l0.077,-0.003l0.08,-0.005l0.074,-0.007l0.073,-0.008l0.077,-0.011l0.074,-0.012l0.074,-0.015l0.073,-0.015l0.071,-0.018l0.069,-0.019l0.069,-0.02l0.072,-0.024l0.071,-0.025l0.07,-0.026l0.067,-0.028l0.063,-0.027l0.065,-0.031l0.068,-0.034l0.063,-0.033l0.061,-0.034l0.064,-0.038l0.063,-0.039l0.061,-0.04l0.059,-0.041l0.056,-0.04l0.057,-0.044l0.058,-0.047l0.057,-0.049l0.052,-0.046l0.052,-0.048l0.055,-0.054l0.05,-0.051l0.047,-0.05l0.048,-0.054l0.048,-0.058l0.045,-0.055l0.042,-0.056l0.046,-0.062l0.04,-0.058l0.04,-0.06l0.038,-0.062l0.036,-0.061l0.036,-0.064l0.035,-0.065l0.032,-0.064l0.03,-0.065l0.03,-0.07l0.028,-0.066l0.025,-0.067l0.024,-0.068l0.023,-0.07l0.021,-0.07l0.019,-0.072l0.018,-0.072l0.016,-0.073l0.014,-0.074l0.012,-0.072l0.01,-0.075l0.009,-0.075l0.007,-0.076l0.004,-0.078l0.003,-0.077l0.001,-0.078l-0.001,-0.079l-0.003,-0.077l-0.004,-0.078l-0.007,-0.075l-0.009,-0.075l-0.01,-0.075l-0.012,-0.073l-0.014,-0.074l-0.016,-0.073l-0.018,-0.071l-0.019,-0.072l-0.021,-0.071l-0.023,-0.07l-0.024,-0.068l-0.025,-0.066l-0.028,-0.067l-0.03,-0.069l-0.03,-0.066l-0.032,-0.064l-0.035,-0.065l-0.034,-0.062l-0.038,-0.062l-0.04,-0.065l-0.038,-0.058l-0.04,-0.058l-0.046,-0.062l-0.042,-0.056l-0.045,-0.055l-0.048,-0.058l-0.048,-0.053l-0.047,-0.051l-0.05,-0.051l-0.055,-0.054l-0.052,-0.048l-0.052,-0.046l-0.057,-0.048l-0.058,-0.047l-0.057,-0.044l-0.056,-0.041l-0.059,-0.041l-0.061,-0.04l-0.063,-0.039l-0.064,-0.038l-0.061,-0.034l-0.063,-0.033l-0.068,-0.034l-0.065,-0.031l-0.063,-0.027l-0.067,-0.028l-0.07,-0.026l-0.071,-0.025l-0.072,-0.023l-0.069,-0.021l-0.069,-0.019l-0.071,-0.017l-0.073,-0.016l-0.074,-0.014l-0.074,-0.013l-0.077,-0.01l-0.073,-0.009l-0.074,-0.006l-0.08,-0.005l-0.077,-0.003l-0.088,-0.001l-409.979,0Z" style="fill:#c9d3df;"/></g><path id="Filled" d="M65.667,380.204c-2.76,0 -5,-2.241 -5,-5c0,-2.757 2.235,-4.996 5,-5l295,0l0,10l-295,0Z" style="fill:url(#_Linear2);"/></g><text id="_1417" x="426.503px" y="349.555px" style="font-family:'Roboto-Regular', 'Roboto';font-size:24px;fill:#54657e;">1417</text><text id="March" x="60.409px" y="349.555px" style="font-family:'Roboto-Regular', 'Roboto';font-size:24px;fill:#54657e;">Mar<tspan x="102.315px " y="349.555px ">c</tspan>h</text></g><g id="_2"><g id="Progress-Bar1"><g id="Base1"><path d="M480.667,285.204c0,-2.76 -2.241,-5 -5,-5l-410,0c-2.76,0 -5,2.24 -5,5c0,2.759 2.24,5 5,5l410,0c2.759,0 5,-2.241 5,-5Z" style="fill:#eceff4;"/><path d="M475.796,280.205l0.128,0.005l0.127,0.008l0.127,0.011l0.125,0.015l0.125,0.017l0.123,0.021l0.123,0.023l0.121,0.027l0.121,0.029l0.119,0.032l0.118,0.036l0.117,0.038l0.115,0.04l0.114,0.044l0.113,0.046l0.112,0.049l0.11,0.051l0.108,0.054l0.107,0.056l0.106,0.059l0.103,0.062l0.103,0.064l0.1,0.066l0.099,0.069l0.097,0.07l0.096,0.074l0.093,0.075l0.092,0.078l0.09,0.079l0.088,0.082l0.085,0.084l0.084,0.086l0.082,0.087l0.08,0.09l0.077,0.092l0.076,0.093l0.073,0.096l0.071,0.097l0.068,0.099l0.066,0.1l0.064,0.103l0.062,0.104l0.059,0.105l0.056,0.107l0.054,0.109l0.052,0.11l0.048,0.111l0.047,0.113l0.043,0.114l0.041,0.116l0.038,0.116l0.035,0.118l0.032,0.12l0.03,0.12l0.026,0.121l0.023,0.123l0.021,0.124l0.017,0.124l0.015,0.126l0.011,0.126l0.008,0.127l0.005,0.129l0.002,0.129l-0.002,0.129l-0.005,0.128l-0.008,0.127l-0.011,0.127l-0.015,0.125l-0.017,0.125l-0.021,0.123l-0.023,0.123l-0.026,0.121l-0.03,0.121l-0.032,0.119l-0.035,0.118l-0.038,0.117l-0.041,0.115l-0.043,0.114l-0.047,0.113l-0.048,0.112l-0.052,0.11l-0.054,0.108l-0.056,0.107l-0.059,0.106l-0.062,0.103l-0.064,0.103l-0.066,0.1l-0.068,0.099l-0.071,0.097l-0.073,0.096l-0.076,0.093l-0.077,0.092l-0.08,0.09l-0.082,0.088l-0.084,0.085l-0.085,0.084l-0.088,0.082l-0.09,0.08l-0.092,0.077l-0.093,0.076l-0.096,0.073l-0.097,0.071l-0.099,0.068l-0.1,0.066l-0.103,0.064l-0.103,0.062l-0.106,0.059l-0.107,0.056l-0.108,0.054l-0.11,0.052l-0.112,0.048l-0.113,0.047l-0.114,0.043l-0.115,0.041l-0.117,0.038l-0.118,0.035l-0.119,0.032l-0.121,0.03l-0.121,0.026l-0.123,0.023l-0.123,0.021l-0.125,0.017l-0.125,0.015l-0.127,0.011l-0.127,0.008l-0.128,0.005l-0.129,0.002l-410,0l-0.129,-0.002l-0.128,-0.005l-0.128,-0.008l-0.126,-0.011l-0.126,-0.015l-0.124,-0.017l-0.124,-0.021l-0.123,-0.023l-0.121,-0.026l-0.12,-0.03l-0.12,-0.032l-0.118,-0.035l-0.116,-0.038l-0.116,-0.041l-0.114,-0.043l-0.113,-0.047l-0.111,-0.048l-0.11,-0.052l-0.109,-0.054l-0.107,-0.056l-0.105,-0.059l-0.104,-0.062l-0.102,-0.064l-0.101,-0.066l-0.099,-0.068l-0.097,-0.071l-0.096,-0.073l-0.093,-0.076l-0.092,-0.077l-0.09,-0.08l-0.087,-0.082l-0.086,-0.084l-0.084,-0.085l-0.082,-0.088l-0.079,-0.09l-0.078,-0.092l-0.075,-0.093l-0.073,-0.096l-0.071,-0.097l-0.069,-0.099l-0.066,-0.1l-0.064,-0.103l-0.062,-0.103l-0.059,-0.106l-0.056,-0.107l-0.054,-0.108l-0.051,-0.11l-0.049,-0.112l-0.046,-0.113l-0.044,-0.114l-0.04,-0.115l-0.038,-0.117l-0.036,-0.118l-0.032,-0.119l-0.029,-0.121l-0.027,-0.121l-0.023,-0.123l-0.021,-0.123l-0.017,-0.125l-0.015,-0.125l-0.011,-0.127l-0.008,-0.127l-0.005,-0.128l-0.001,-0.129l0.001,-0.129l0.005,-0.129l0.008,-0.127l0.011,-0.126l0.015,-0.126l0.017,-0.124l0.021,-0.124l0.023,-0.123l0.027,-0.121l0.029,-0.12l0.032,-0.12l0.036,-0.118l0.038,-0.116l0.04,-0.116l0.044,-0.114l0.046,-0.113l0.049,-0.111l0.051,-0.11l0.054,-0.109l0.056,-0.107l0.059,-0.105l0.062,-0.104l0.064,-0.103l0.066,-0.1l0.069,-0.099l0.071,-0.097l0.073,-0.096l0.075,-0.093l0.078,-0.092l0.079,-0.09l0.082,-0.087l0.084,-0.086l0.086,-0.084l0.087,-0.082l0.09,-0.079l0.092,-0.078l0.093,-0.075l0.096,-0.074l0.097,-0.07l0.099,-0.069l0.101,-0.066l0.102,-0.064l0.104,-0.062l0.105,-0.059l0.107,-0.056l0.109,-0.054l0.11,-0.051l0.111,-0.049l0.113,-0.046l0.114,-0.044l0.116,-0.04l0.116,-0.038l0.118,-0.036l0.12,-0.032l0.12,-0.029l0.121,-0.027l0.123,-0.023l0.124,-0.021l0.124,-0.017l0.126,-0.015l0.126,-0.011l0.128,-0.008l0.128,-0.005l0.129,-0.001l410,0l0.129,0.001Zm-410.114,1.999l-0.093,0.001l-0.082,0.003l-0.075,0.005l-0.074,0.006l-0.073,0.008l-0.076,0.011l-0.075,0.013l-0.074,0.014l-0.072,0.016l-0.071,0.017l-0.07,0.019l-0.069,0.02l-0.072,0.024l-0.071,0.025l-0.069,0.026l-0.064,0.026l-0.066,0.03l-0.07,0.032l-0.064,0.032l-0.063,0.033l-0.061,0.034l-0.064,0.038l-0.063,0.039l-0.057,0.038l-0.06,0.041l-0.062,0.046l-0.056,0.043l-0.056,0.045l-0.057,0.048l-0.052,0.046l-0.051,0.048l-0.053,0.051l-0.053,0.055l-0.049,0.052l-0.045,0.051l-0.049,0.058l-0.044,0.055l-0.044,0.057l-0.043,0.059l-0.042,0.06l-0.04,0.061l-0.038,0.061l-0.037,0.063l-0.035,0.062l-0.034,0.065l-0.032,0.065l-0.031,0.065l-0.029,0.066l-0.028,0.068l-0.026,0.069l-0.024,0.069l-0.023,0.07l-0.021,0.069l-0.019,0.072l-0.018,0.072l-0.015,0.071l-0.014,0.074l-0.013,0.074l-0.01,0.074l-0.009,0.076l-0.006,0.076l-0.005,0.077l-0.003,0.078l-0.001,0.078l0.001,0.078l0.003,0.077l0.005,0.078l0.006,0.076l0.009,0.074l0.01,0.075l0.013,0.074l0.014,0.074l0.015,0.071l0.018,0.073l0.02,0.072l0.02,0.07l0.023,0.069l0.024,0.069l0.026,0.068l0.027,0.066l0.029,0.067l0.032,0.066l0.033,0.067l0.033,0.063l0.035,0.063l0.037,0.063l0.038,0.06l0.04,0.061l0.042,0.06l0.043,0.06l0.041,0.054l0.047,0.058l0.049,0.057l0.047,0.053l0.049,0.053l0.048,0.05l0.053,0.05l0.054,0.051l0.052,0.046l0.057,0.049l0.059,0.047l0.057,0.044l0.055,0.04l0.059,0.041l0.065,0.042l0.059,0.038l0.06,0.035l0.065,0.036l0.063,0.033l0.068,0.034l0.066,0.031l0.062,0.027l0.073,0.03l0.069,0.027l0.061,0.021l0.072,0.023l0.074,0.022l0.07,0.019l0.071,0.018l0.072,0.015l0.074,0.014l0.075,0.013l0.076,0.011l0.073,0.008l0.074,0.006l0.08,0.005l0.077,0.004l0.088,0.001l409.979,0l0.088,-0.001l0.077,-0.004l0.08,-0.005l0.074,-0.006l0.073,-0.008l0.077,-0.011l0.074,-0.013l0.074,-0.014l0.073,-0.015l0.071,-0.018l0.069,-0.019l0.074,-0.022l0.072,-0.023l0.061,-0.021l0.07,-0.027l0.072,-0.03l0.063,-0.027l0.065,-0.031l0.068,-0.034l0.063,-0.033l0.065,-0.036l0.06,-0.035l0.059,-0.038l0.065,-0.042l0.059,-0.041l0.056,-0.041l0.057,-0.043l0.058,-0.047l0.057,-0.049l0.052,-0.046l0.055,-0.051l0.052,-0.051l0.048,-0.048l0.049,-0.054l0.048,-0.053l0.048,-0.058l0.047,-0.057l0.04,-0.053l0.044,-0.061l0.042,-0.06l0.04,-0.061l0.038,-0.061l0.038,-0.063l0.034,-0.062l0.034,-0.063l0.033,-0.066l0.031,-0.067l0.029,-0.067l0.027,-0.066l0.026,-0.068l0.024,-0.068l0.023,-0.07l0.021,-0.07l0.019,-0.072l0.018,-0.072l0.016,-0.073l0.014,-0.074l0.012,-0.072l0.01,-0.076l0.009,-0.074l0.007,-0.076l0.004,-0.078l0.003,-0.077l0.001,-0.078l-0.001,-0.078l-0.003,-0.078l-0.004,-0.078l-0.007,-0.075l-0.009,-0.076l-0.01,-0.075l-0.012,-0.072l-0.014,-0.074l-0.016,-0.073l-0.018,-0.071l-0.019,-0.071l-0.021,-0.07l-0.023,-0.071l-0.024,-0.068l-0.026,-0.069l-0.027,-0.067l-0.03,-0.067l-0.03,-0.066l-0.032,-0.064l-0.035,-0.065l-0.034,-0.062l-0.038,-0.063l-0.038,-0.061l-0.04,-0.061l-0.042,-0.06l-0.044,-0.06l-0.042,-0.056l-0.045,-0.055l-0.048,-0.058l-0.045,-0.051l-0.05,-0.052l-0.052,-0.054l-0.053,-0.052l-0.052,-0.048l-0.052,-0.046l-0.057,-0.048l-0.055,-0.045l-0.057,-0.043l-0.063,-0.046l-0.059,-0.041l-0.057,-0.038l-0.063,-0.039l-0.064,-0.038l-0.061,-0.034l-0.063,-0.033l-0.064,-0.032l-0.069,-0.032l-0.067,-0.03l-0.063,-0.026l-0.07,-0.026l-0.071,-0.025l-0.072,-0.024l-0.069,-0.02l-0.069,-0.019l-0.071,-0.017l-0.073,-0.016l-0.074,-0.014l-0.074,-0.013l-0.077,-0.011l-0.073,-0.008l-0.074,-0.006l-0.075,-0.005l-0.081,-0.003l-0.094,-0.001l-409.969,0Z" style="fill:#c9d3df;"/></g><path id="Filled1" d="M65.667,290.204c-2.76,0 -5,-2.241 -5,-5c0,-2.757 2.235,-4.996 5,-5l155,0l0,10l-155,0Z" style="fill:url(#_Linear3);"/></g><text id="_726" x="439.979px" y="259.555px" style="font-family:'Roboto-Regular', 'Roboto';font-size:24px;fill:#54657e;">726</text><text id="February" x="60.409px" y="259.555px" style="font-family:'Roboto-Regular', 'Roboto';font-size:24px;fill:#54657e;">F<tspan x="73.428px " y="259.555px ">e</tspan>bruar<tspan x="142.346px " y="259.555px ">y</tspan></text></g><g id="_1"><g id="Progress-Bar2"><g id="Base2"><path d="M480.667,195.204c0,-2.76 -2.241,-5 -5,-5l-410,0c-2.76,0 -5,2.24 -5,5c0,2.759 2.24,5 5,5l410,0c2.759,0 5,-2.241 5,-5Z" style="fill:#eceff4;"/><path d="M475.796,190.205l0.128,0.005l0.127,0.008l0.127,0.011l0.125,0.015l0.125,0.017l0.123,0.021l0.123,0.023l0.121,0.027l0.121,0.029l0.119,0.032l0.118,0.036l0.117,0.038l0.115,0.04l0.114,0.044l0.113,0.046l0.112,0.049l0.11,0.051l0.108,0.054l0.107,0.056l0.106,0.059l0.103,0.062l0.103,0.064l0.1,0.066l0.099,0.069l0.097,0.07l0.096,0.074l0.093,0.075l0.092,0.078l0.09,0.079l0.088,0.082l0.085,0.084l0.084,0.086l0.082,0.087l0.08,0.09l0.077,0.092l0.076,0.093l0.073,0.096l0.071,0.097l0.068,0.099l0.066,0.1l0.064,0.103l0.062,0.104l0.059,0.105l0.056,0.107l0.054,0.109l0.052,0.11l0.048,0.111l0.047,0.113l0.043,0.114l0.041,0.116l0.038,0.116l0.035,0.118l0.032,0.12l0.03,0.12l0.026,0.121l0.023,0.123l0.021,0.124l0.017,0.124l0.015,0.126l0.011,0.126l0.008,0.127l0.005,0.129l0.002,0.129l-0.002,0.129l-0.005,0.128l-0.008,0.127l-0.011,0.127l-0.015,0.125l-0.017,0.125l-0.021,0.123l-0.023,0.123l-0.026,0.121l-0.03,0.121l-0.032,0.119l-0.035,0.118l-0.038,0.117l-0.041,0.115l-0.043,0.114l-0.047,0.113l-0.048,0.112l-0.052,0.11l-0.054,0.108l-0.056,0.107l-0.059,0.106l-0.062,0.103l-0.064,0.103l-0.066,0.1l-0.068,0.099l-0.071,0.097l-0.073,0.096l-0.076,0.093l-0.077,0.092l-0.08,0.09l-0.082,0.088l-0.084,0.085l-0.085,0.084l-0.088,0.082l-0.09,0.08l-0.092,0.077l-0.093,0.076l-0.096,0.073l-0.097,0.071l-0.099,0.068l-0.1,0.066l-0.103,0.064l-0.103,0.062l-0.106,0.059l-0.107,0.056l-0.108,0.054l-0.11,0.052l-0.112,0.048l-0.113,0.047l-0.114,0.043l-0.115,0.041l-0.117,0.038l-0.118,0.035l-0.119,0.032l-0.121,0.03l-0.121,0.026l-0.123,0.023l-0.123,0.021l-0.125,0.017l-0.125,0.015l-0.127,0.011l-0.127,0.008l-0.128,0.005l-0.129,0.002l-410,0l-0.129,-0.002l-0.128,-0.005l-0.128,-0.008l-0.126,-0.011l-0.126,-0.015l-0.124,-0.017l-0.124,-0.021l-0.123,-0.023l-0.121,-0.026l-0.12,-0.03l-0.12,-0.032l-0.118,-0.035l-0.116,-0.038l-0.116,-0.041l-0.114,-0.043l-0.113,-0.047l-0.111,-0.048l-0.11,-0.052l-0.109,-0.054l-0.107,-0.056l-0.105,-0.059l-0.104,-0.062l-0.102,-0.064l-0.101,-0.066l-0.099,-0.068l-0.097,-0.071l-0.096,-0.073l-0.093,-0.076l-0.092,-0.077l-0.09,-0.08l-0.087,-0.082l-0.086,-0.084l-0.084,-0.085l-0.082,-0.088l-0.079,-0.09l-0.078,-0.092l-0.075,-0.093l-0.073,-0.096l-0.071,-0.097l-0.069,-0.099l-0.066,-0.1l-0.064,-0.103l-0.062,-0.103l-0.059,-0.106l-0.056,-0.107l-0.054,-0.108l-0.051,-0.11l-0.049,-0.112l-0.046,-0.113l-0.044,-0.114l-0.04,-0.115l-0.038,-0.117l-0.036,-0.118l-0.032,-0.119l-0.029,-0.121l-0.027,-0.121l-0.023,-0.123l-0.021,-0.123l-0.017,-0.125l-0.015,-0.125l-0.011,-0.127l-0.008,-0.127l-0.005,-0.128l-0.001,-0.129l0.001,-0.129l0.005,-0.129l0.008,-0.127l0.011,-0.126l0.015,-0.126l0.017,-0.124l0.021,-0.124l0.023,-0.123l0.027,-0.121l0.029,-0.12l0.032,-0.12l0.036,-0.118l0.038,-0.116l0.04,-0.116l0.044,-0.114l0.046,-0.113l0.049,-0.111l0.051,-0.11l0.054,-0.109l0.056,-0.107l0.059,-0.105l0.062,-0.104l0.064,-0.103l0.066,-0.1l0.069,-0.099l0.071,-0.097l0.073,-0.096l0.075,-0.093l0.078,-0.092l0.079,-0.09l0.082,-0.087l0.084,-0.086l0.086,-0.084l0.087,-0.082l0.09,-0.079l0.092,-0.078l0.093,-0.075l0.096,-0.074l0.097,-0.07l0.099,-0.069l0.101,-0.066l0.102,-0.064l0.104,-0.062l0.105,-0.059l0.107,-0.056l0.109,-0.054l0.11,-0.051l0.111,-0.049l0.113,-0.046l0.114,-0.044l0.116,-0.04l0.116,-0.038l0.118,-0.036l0.12,-0.032l0.12,-0.029l0.121,-0.027l0.123,-0.023l0.124,-0.021l0.124,-0.017l0.126,-0.015l0.126,-0.011l0.128,-0.008l0.128,-0.005l0.129,-0.001l410,0l0.129,0.001Zm-410.114,1.998l-0.093,0.002l-0.082,0.003l-0.07,0.004l-0.074,0.007l-0.083,0.01l-0.076,0.01l-0.07,0.012l-0.074,0.014l-0.072,0.015l-0.071,0.018l-0.07,0.019l-0.069,0.02l-0.072,0.024l-0.071,0.025l-0.069,0.026l-0.064,0.026l-0.066,0.029l-0.07,0.033l-0.064,0.032l-0.063,0.033l-0.061,0.034l-0.064,0.038l-0.063,0.039l-0.057,0.038l-0.06,0.041l-0.062,0.045l-0.056,0.044l-0.056,0.044l-0.054,0.046l-0.055,0.049l-0.054,0.051l-0.05,0.048l-0.051,0.052l-0.051,0.056l-0.048,0.053l-0.044,0.052l-0.046,0.058l-0.046,0.059l-0.041,0.057l-0.042,0.06l-0.04,0.061l-0.038,0.061l-0.037,0.062l-0.035,0.063l-0.034,0.065l-0.032,0.065l-0.031,0.064l-0.029,0.067l-0.028,0.068l-0.026,0.069l-0.024,0.068l-0.023,0.071l-0.021,0.069l-0.019,0.07l-0.017,0.073l-0.016,0.074l-0.014,0.072l-0.013,0.075l-0.01,0.074l-0.009,0.075l-0.006,0.076l-0.005,0.076l-0.003,0.079l-0.001,0.078l0.001,0.078l0.003,0.077l0.005,0.078l0.006,0.075l0.009,0.075l0.01,0.075l0.013,0.074l0.014,0.074l0.015,0.071l0.018,0.072l0.02,0.073l0.02,0.07l0.023,0.069l0.024,0.069l0.026,0.068l0.028,0.068l0.028,0.065l0.032,0.066l0.033,0.068l0.032,0.06l0.036,0.065l0.039,0.065l0.036,0.059l0.04,0.06l0.042,0.061l0.041,0.056l0.046,0.059l0.044,0.056l0.046,0.054l0.05,0.056l0.049,0.053l0.048,0.05l0.053,0.05l0.054,0.051l0.055,0.049l0.054,0.046l0.056,0.044l0.06,0.047l0.055,0.04l0.059,0.041l0.065,0.042l0.059,0.037l0.06,0.036l0.065,0.036l0.067,0.036l0.064,0.032l0.061,0.028l0.071,0.031l0.069,0.028l0.064,0.025l0.071,0.025l0.067,0.022l0.069,0.02l0.075,0.02l0.071,0.017l0.072,0.016l0.074,0.014l0.075,0.013l0.076,0.011l0.073,0.008l0.074,0.006l0.08,0.005l0.077,0.004l0.088,0l409.979,0l0.088,0l0.077,-0.004l0.08,-0.005l0.074,-0.006l0.073,-0.008l0.077,-0.011l0.074,-0.013l0.074,-0.014l0.073,-0.016l0.071,-0.017l0.074,-0.02l0.069,-0.02l0.067,-0.022l0.071,-0.025l0.065,-0.025l0.068,-0.028l0.071,-0.031l0.061,-0.028l0.064,-0.032l0.067,-0.036l0.065,-0.036l0.06,-0.035l0.059,-0.038l0.065,-0.042l0.059,-0.041l0.056,-0.041l0.06,-0.046l0.055,-0.044l0.054,-0.046l0.055,-0.049l0.055,-0.051l0.052,-0.051l0.048,-0.048l0.049,-0.054l0.05,-0.056l0.046,-0.054l0.045,-0.056l0.044,-0.058l0.042,-0.057l0.042,-0.061l0.04,-0.06l0.037,-0.059l0.039,-0.066l0.036,-0.064l0.032,-0.06l0.033,-0.067l0.031,-0.067l0.029,-0.065l0.027,-0.068l0.026,-0.068l0.024,-0.068l0.023,-0.07l0.021,-0.07l0.019,-0.073l0.018,-0.071l0.016,-0.073l0.014,-0.074l0.012,-0.072l0.01,-0.076l0.009,-0.075l0.007,-0.075l0.004,-0.078l0.003,-0.077l0.001,-0.078l-0.001,-0.078l-0.003,-0.079l-0.004,-0.077l-0.007,-0.075l-0.009,-0.075l-0.01,-0.075l-0.012,-0.073l-0.014,-0.073l-0.017,-0.075l-0.017,-0.072l-0.019,-0.069l-0.021,-0.07l-0.023,-0.071l-0.024,-0.068l-0.026,-0.069l-0.027,-0.067l-0.03,-0.068l-0.03,-0.065l-0.032,-0.064l-0.035,-0.065l-0.034,-0.062l-0.038,-0.063l-0.038,-0.061l-0.04,-0.061l-0.042,-0.06l-0.042,-0.058l-0.044,-0.058l-0.047,-0.058l-0.044,-0.052l-0.047,-0.053l-0.052,-0.056l-0.05,-0.051l-0.05,-0.049l-0.055,-0.051l-0.055,-0.049l-0.054,-0.046l-0.055,-0.044l-0.057,-0.043l-0.063,-0.046l-0.059,-0.041l-0.057,-0.038l-0.063,-0.039l-0.064,-0.038l-0.061,-0.034l-0.063,-0.033l-0.064,-0.032l-0.069,-0.033l-0.067,-0.029l-0.063,-0.026l-0.07,-0.026l-0.071,-0.025l-0.072,-0.024l-0.069,-0.02l-0.069,-0.019l-0.071,-0.018l-0.073,-0.015l-0.074,-0.014l-0.069,-0.012l-0.077,-0.01l-0.083,-0.01l-0.074,-0.007l-0.07,-0.004l-0.081,-0.003l-0.094,-0.002l-409.969,0Z" style="fill:#c9d3df;"/></g><path id="Filled2" d="M65.667,200.204c-2.76,0 -5,-2.241 -5,-5c0,-2.757 2.235,-4.996 5,-5l215,0l0,10l-215,0Z" style="fill:url(#_Linear4);"/></g><text id="_1058" x="426.503px" y="169.555px" style="font-family:'Roboto-Regular', 'Roboto';font-size:24px;fill:#54657e;">1058</text><text id="January" x="60.409px" y="169.555px" style="font-family:'Roboto-Regular', 'Roboto';font-size:24px;fill:#54657e;">Januar<tspan x="134.565px " y="169.555px ">y</tspan></text></g><text id="Downloads" x="258.831px" y="99.555px" style="font-family:'Roboto-Regular', 'Roboto';font-size:24px;fill:#54657e;">S<tspan x="273.913px 288.749px 306.092px 321.714px 338.085px 355.276px 369.339px 375.702px 392.108px 407.19px 423.561px 440.753px " y="99.555px 99.555px 99.555px 99.555px 99.555px 99.555px 99.555px 99.555px 99.555px 99.555px 99.555px 99.555px ">TORAGE USAGE</tspan></text><text id="_3201" x="58.409px" y="99.555px" style="font-family:'Roboto-Regular', 'Roboto';font-size:50px;fill:#3d4d65;">3201GB</text></g><defs><linearGradient id="_Linear2" x1="0" y1="0" x2="1" y2="0" gradientUnits="userSpaceOnUse" gradientTransform="matrix(300,0,0,300,60.6666,375.204)"><stop offset="0%" style="stop-color:#d73f59;stop-opacity:1"/><stop offset="100%" style="stop-color:#a133d5;stop-opacity:1"/></linearGradient><linearGradient id="_Linear3" x1="0" y1="0" x2="1" y2="0" gradientUnits="userSpaceOnUse" gradientTransform="matrix(160,0,0,160,60.6666,285.204)"><stop offset="0%" style="stop-color:#a133d5;stop-opacity:1"/><stop offset="100%" style="stop-color:#0081d5;stop-opacity:1"/></linearGradient><linearGradient id="_Linear4" x1="0" y1="0" x2="1" y2="0" gradientUnits="userSpaceOnUse" gradientTransform="matrix(220,0,0,220,60.6666,195.204)"><stop offset="0%" style="stop-color:#ffda2e;stop-opacity:1"/><stop offset="100%" style="stop-color:#ff8d47;stop-opacity:1"/></linearGradient></defs></svg>